<?xml version="1.0" standalone="no"?>
<!DOCTYPE svg PUBLIC "-//W3C//DTD SVG 20010904//EN"
 "http://www.w3.org/TR/2001/REC-SVG-20010904/DTD/svg10.dtd">
<svg version="1.0" xmlns="http://www.w3.org/2000/svg"
 width="1280.000000pt" height="332.000000pt" viewBox="0 0 1280.000000 332.000000"
 preserveAspectRatio="xMidYMid meet">
<metadata>
Created by potrace 1.16, written by Peter Selinger 2001-2019
</metadata>
<g transform="translate(0.000000,332.000000) scale(0.100000,-0.100000)"
fill="#000000" stroke="none">
<path d="M0 3020 c1 -249 3 -300 15 -300 19 0 28 17 13 23 -17 7 12 29 29 22
15 -5 17 14 3 35 -9 15 -3 23 45 60 17 14 18 13 12 -2 -4 -12 -2 -15 9 -11 7
3 14 12 14 21 0 12 4 12 22 -4 12 -10 18 -13 14 -6 -9 15 38 36 73 33 13 -2
21 1 18 6 -14 22 14 35 79 39 96 5 123 10 142 27 15 14 20 13 45 -9 25 -21 27
-27 15 -42 -12 -16 -11 -16 12 -1 18 12 41 15 83 11 37 -2 63 0 72 8 19 16 46
-4 38 -28 -3 -10 3 -7 16 8 12 15 21 19 21 11 0 -11 3 -11 15 -1 8 7 15 23 15
36 0 13 5 24 10 24 6 0 10 -4 10 -10 0 -5 7 -10 15 -10 8 0 15 -5 15 -11 0 -6
-9 -8 -21 -4 -15 5 -19 4 -15 -4 4 -6 14 -11 21 -11 9 0 14 -9 12 -22 -1 -16
3 -22 13 -19 8 2 22 4 30 5 18 2 21 21 3 21 -6 0 -15 4 -20 9 -4 5 -3 6 5 2 8
-5 12 0 12 13 0 26 15 27 29 4 9 -15 10 -12 7 12 -2 17 -1 24 1 18 2 -7 11
-13 19 -13 11 0 13 6 9 21 -7 19 -5 19 32 -5 52 -34 108 -44 117 -20 6 16 7
16 25 -1 11 -9 39 -18 63 -19 31 -2 44 -7 46 -19 6 -28 23 -19 20 9 -2 15 3
29 10 31 7 3 10 -1 6 -11 -7 -18 11 -22 21 -5 4 6 14 8 23 4 8 -3 19 0 24 7 6
9 7 5 3 -9 -7 -24 4 -30 21 -13 15 15 44 2 37 -16 -3 -8 -1 -14 5 -14 5 0 12
7 16 15 5 14 76 19 76 6 0 -4 29 -7 64 -7 35 1 62 4 60 7 -2 4 2 9 10 12 8 3
17 -1 20 -10 6 -14 9 -13 29 3 14 12 17 13 9 3 -13 -17 -6 -79 9 -79 5 0 6 7
3 15 -7 18 3 19 21 3 37 -33 46 -39 56 -33 5 4 16 1 24 -5 11 -9 15 -9 15 -1
0 6 7 11 15 11 8 0 15 -4 15 -9 0 -13 63 -7 68 7 2 6 8 12 14 12 6 0 8 -7 5
-14 -4 -9 2 -17 14 -21 10 -4 19 -11 19 -17 0 -7 5 -6 14 1 10 9 16 9 21 1 5
-8 14 -6 31 5 14 9 28 13 33 10 13 -8 23 27 11 39 -15 15 -12 26 5 26 9 0 20
12 26 27 10 26 36 52 53 53 5 0 3 -7 -4 -15 -10 -12 -7 -14 17 -14 15 1 40 -1
56 -4 15 -2 27 0 27 5 0 5 5 6 10 3 6 -4 18 -1 27 7 14 11 16 10 11 -8 -4 -17
-2 -21 14 -16 18 4 18 5 -3 28 -11 12 -18 27 -14 33 4 8 -1 8 -18 2 -18 -7
-30 -6 -45 5 -18 12 -22 12 -37 -2 -12 -13 -19 -14 -28 -5 -9 9 -6 13 11 18
18 4 20 8 11 19 -8 10 -16 11 -30 3 -16 -8 -23 -6 -38 13 -16 18 -21 20 -34
10 -17 -14 -33 0 -21 19 4 8 -1 9 -16 4 -19 -6 -22 -4 -17 9 5 14 3 16 -13 11
-10 -3 -29 0 -42 8 -13 8 -38 18 -55 22 -33 7 -46 25 -18 25 8 0 15 -5 15 -10
0 -6 11 -3 24 7 13 10 22 21 19 26 -2 4 1 7 7 7 7 0 10 6 7 14 -4 10 0 12 15
8 11 -2 22 -11 25 -18 10 -26 25 -15 18 14 -6 25 -5 26 8 8 14 -19 15 -19 32
-2 18 18 46 18 52 0 2 -6 -5 -10 -16 -10 -11 1 -19 -3 -18 -9 1 -5 6 -9 10 -7
4 1 16 -2 27 -8 12 -7 20 -6 22 1 2 6 15 2 30 -10 33 -27 48 -28 17 -1 l-24
19 27 1 c15 0 34 8 44 18 17 16 17 16 12 -3 -3 -11 -9 -28 -13 -37 -4 -11 -3
-18 4 -18 6 0 11 7 11 15 0 13 12 14 83 9 81 -7 104 -13 80 -21 -20 -7 -2 -33
23 -33 19 0 24 5 24 26 0 22 3 24 14 15 10 -9 16 -9 21 -1 4 6 13 9 21 6 9 -3
16 4 20 19 7 28 33 41 48 24 8 -8 8 -13 0 -16 -6 -2 -20 -11 -30 -19 -18 -14
-18 -15 5 -8 16 4 21 3 17 -5 -4 -6 -4 -16 0 -22 4 -7 11 -2 18 13 7 14 19 22
30 20 15 -3 18 1 14 22 -5 23 -2 26 26 26 17 0 26 -4 20 -8 -6 -4 -14 -16 -17
-26 -6 -15 -5 -17 6 -8 7 6 24 9 38 6 13 -2 18 -2 12 2 -15 7 -17 34 -3 34 6
0 10 -4 10 -10 0 -5 9 -10 19 -10 11 0 23 5 26 10 3 6 -3 10 -14 10 -12 0 -21
5 -21 11 0 6 6 9 14 6 8 -3 20 1 26 9 14 16 30 19 30 4 0 -5 -7 -10 -15 -10
-20 0 -19 -13 3 -33 23 -21 36 -22 29 -3 -6 15 25 29 56 26 9 -1 17 6 17 14 0
11 9 16 30 16 20 0 30 -5 30 -15 0 -8 -4 -15 -10 -15 -5 0 -10 -7 -10 -15 0
-17 16 -20 25 -4 5 7 14 3 27 -10 10 -12 23 -19 29 -16 14 9 11 25 -6 25 -8 0
-15 5 -15 11 0 12 43 1 48 -12 7 -18 32 -9 32 11 0 11 7 20 15 20 8 0 15 -4
15 -10 0 -5 7 -10 15 -10 8 0 15 8 15 18 0 14 9 18 45 19 35 2 43 -1 38 -12
-4 -11 2 -15 22 -15 23 0 26 -2 15 -15 -7 -9 -11 -16 -9 -18 47 -27 51 -28 65
-16 7 6 11 15 8 21 -9 14 16 38 40 37 19 -1 18 -2 -4 -8 -17 -5 -21 -9 -12
-15 6 -4 17 -4 22 -1 5 3 10 1 10 -4 0 -6 -4 -11 -10 -11 -5 0 -10 -5 -10 -11
0 -6 7 -8 17 -5 9 4 20 1 24 -6 14 -22 20 -2 9 27 -6 15 -8 30 -5 33 3 4 8 -4
12 -16 6 -24 18 -28 29 -11 4 7 21 9 40 6 19 -3 34 -2 34 4 0 5 -4 9 -10 9 -5
0 -10 5 -10 10 0 6 7 10 15 10 8 0 15 5 15 10 0 6 5 10 10 10 6 0 10 -6 10
-14 0 -8 11 -13 26 -13 20 0 25 4 21 18 -3 12 0 16 9 12 8 -3 14 0 14 7 0 6 5
8 10 5 6 -3 10 2 11 12 0 16 1 16 8 -2 5 -11 4 -25 -1 -32 -7 -9 -7 -13 0 -13
6 0 13 4 17 10 3 5 18 9 33 8 35 -1 86 7 101 16 6 4 11 1 11 -8 0 -9 6 -16 14
-16 26 0 46 12 46 27 0 12 6 13 28 8 15 -5 36 -7 47 -6 11 1 42 1 68 1 27 -1
55 4 63 11 10 8 14 8 14 0 0 -7 8 -8 26 -1 41 16 51 11 18 -7 -49 -28 -58 -36
-86 -74 -19 -25 -45 -42 -95 -62 -38 -15 -80 -27 -94 -27 -32 0 -79 -35 -79
-58 -1 -9 -9 -32 -19 -51 -16 -30 -17 -39 -5 -78 19 -62 83 -224 100 -250 27
-42 19 -48 -58 -48 -40 0 -85 -5 -100 -12 -15 -7 -38 -13 -52 -13 -14 0 -27
-4 -30 -9 -3 -5 -29 -16 -58 -25 -29 -9 -62 -21 -73 -25 -11 -5 -28 -12 -37
-15 -10 -3 -18 -15 -18 -28 0 -13 -8 -32 -17 -43 l-15 -20 5 20 c2 11 8 28 12
37 4 11 3 18 -4 18 -7 0 -19 -17 -28 -37 -35 -87 -54 -123 -63 -123 -14 0 -13
5 17 60 15 27 24 52 21 56 -12 11 -26 -5 -33 -36 -4 -17 -10 -30 -15 -30 -18
0 -20 -40 -3 -76 25 -55 105 -156 163 -204 57 -47 67 -72 17 -41 l-33 20 -11
-27 c-6 -15 -14 -44 -17 -64 -4 -21 -11 -38 -16 -38 -17 0 -39 31 -34 48 3 9
-8 1 -25 -18 -17 -19 -31 -45 -31 -56 0 -12 -7 -35 -15 -50 -25 -49 -14 -77
13 -33 11 16 16 18 28 9 11 -10 14 -8 14 10 0 13 8 24 20 27 27 7 15 23 -18
24 -27 2 -27 2 -2 6 13 3 33 11 44 19 11 8 31 14 44 14 l24 0 -23 -21 c-17
-14 -20 -22 -11 -25 17 -8 15 -24 -5 -47 -10 -11 -13 -18 -8 -16 102 40 254
83 263 75 12 -12 -24 -35 -103 -66 -44 -17 -107 -44 -140 -60 -33 -15 -100
-44 -150 -63 -89 -35 -90 -35 -93 -72 l-3 -37 43 34 c61 50 131 92 126 76 -3
-7 -24 -28 -49 -46 -146 -108 -345 -305 -382 -379 -15 -28 -15 -32 -1 -37 24
-9 34 -7 34 7 0 7 7 22 16 33 15 18 15 17 10 -12 -3 -18 3 -60 13 -95 l17 -62
23 36 c19 31 110 107 128 107 4 0 -5 -12 -19 -27 -27 -29 -88 -122 -88 -134 0
-4 42 34 93 84 90 90 172 155 182 145 12 -12 -18 -62 -79 -127 -149 -163 -149
-265 0 -333 63 -28 171 -54 269 -63 97 -10 115 -15 115 -34 0 -9 5 -22 12 -29
9 -9 8 -12 -4 -12 -9 0 -18 -7 -21 -14 -6 -16 2 -15 53 6 95 39 99 43 130 153
24 83 25 115 6 115 -12 0 -26 20 -26 37 0 2 10 3 23 1 14 -2 21 -9 19 -20 -5
-34 17 -27 53 17 69 85 71 59 11 -121 -25 -72 -59 -183 -76 -245 -17 -63 -44
-150 -58 -194 -29 -86 -28 -85 -102 -71 -19 3 -42 2 -50 -3 -12 -8 -12 -13 0
-35 7 -14 21 -28 32 -32 10 -3 18 -11 18 -19 0 -7 10 -15 23 -17 19 -3 22 -9
24 -53 1 -27 5 -69 8 -92 8 -50 8 -50 -85 -57 -36 -3 -150 -14 -255 -25 -104
-11 -233 -22 -285 -25 -147 -10 -531 -45 -565 -53 -16 -3 -54 -6 -82 -5 -29 0
-53 -4 -53 -9 0 -5 187 -9 470 -9 276 0 470 4 470 9 0 5 18 12 40 16 44 7 71
-2 49 -16 -9 -6 0 -9 27 -9 28 0 44 5 48 15 3 8 10 15 16 15 5 0 10 -7 10 -15
0 -12 13 -15 55 -15 54 0 55 1 55 28 0 16 3 32 6 35 8 8 48 -19 50 -33 1 -6 2
-14 3 -20 1 -7 1358 -10 4049 -10 2500 0 4041 4 4032 10 -8 5 -11 13 -6 17 4
4 13 0 20 -10 12 -15 35 -17 227 -17 196 0 217 2 247 20 34 21 44 17 15 -6
-15 -11 22 -13 230 -13 l247 -1 0 1660 0 1660 -742 0 c-650 0 -740 -2 -716
-14 20 -11 37 -12 59 -6 18 5 36 7 40 4 15 -9 10 -21 -11 -27 -11 -3 -20 -12
-20 -21 0 -18 13 -20 40 -6 11 6 21 6 24 1 3 -5 -1 -11 -9 -15 -28 -10 -15
-26 18 -21 17 3 26 3 20 -1 -16 -7 -17 -24 -2 -24 16 0 41 29 34 40 -3 5 3 10
14 10 22 0 28 -14 11 -25 -6 -4 -8 -10 -5 -15 3 -5 17 3 31 17 14 14 31 22 39
19 9 -3 15 1 15 10 0 13 3 13 23 -1 13 -8 26 -13 29 -10 3 3 17 1 31 -4 19 -8
27 -7 31 5 3 8 10 14 16 14 8 0 8 -6 0 -20 -9 -16 -8 -22 5 -26 18 -7 20 -30
3 -37 -8 -4 -9 -6 -2 -6 6 -1 17 6 24 14 7 8 18 15 25 15 6 0 17 10 22 23 11
22 11 22 18 -5 4 -16 12 -25 17 -22 6 4 8 -2 6 -12 -2 -12 -11 -18 -22 -16
-13 3 -17 -1 -13 -12 9 -23 -21 -50 -39 -35 -11 9 -14 7 -14 -10 0 -25 25 -28
48 -5 12 12 27 15 60 10 36 -5 43 -3 39 9 -4 9 -1 12 9 8 7 -3 14 0 14 6 0 6
-4 11 -10 11 -5 0 -10 5 -10 10 0 6 9 10 21 10 16 0 19 -4 14 -22 -4 -13 -11
-27 -16 -33 -5 -5 -9 -20 -8 -35 0 -14 3 -19 6 -13 2 7 4 15 4 18 -1 3 7 13
17 23 15 17 19 17 35 4 9 -8 17 -22 16 -31 0 -13 -2 -12 -8 2 -6 17 -8 17 -20
3 -10 -12 -10 -16 -1 -16 7 0 10 -7 6 -16 -4 -10 1 -22 11 -29 13 -10 15 -16
6 -26 -6 -8 -10 -25 -8 -39 1 -22 5 -24 38 -22 41 4 45 -3 21 -37 -14 -19 -14
-25 -3 -32 7 -4 19 -3 26 2 9 8 12 4 10 -18 -1 -19 3 -28 13 -28 8 0 15 5 15
10 1 30 73 75 86 54 5 -9 12 -8 24 4 9 10 24 17 33 18 9 0 34 1 55 3 23 2 33
0 25 -5 -7 -5 -24 -9 -38 -9 -20 0 -22 -2 -10 -11 11 -8 12 -12 3 -16 -7 -2
-13 -20 -13 -39 0 -19 -4 -34 -10 -34 -5 0 -10 4 -10 9 0 5 -25 8 -55 8 -41
-2 -58 -7 -69 -22 -20 -26 -20 -35 -1 -35 8 0 15 7 15 16 0 11 6 13 19 9 11
-3 22 -1 26 5 8 13 45 13 45 -1 0 -5 4 -8 9 -5 5 3 11 -1 15 -9 3 -8 0 -17 -6
-21 -6 -4 -8 -3 -4 4 18 29 -57 15 -80 -16 -12 -15 -15 -15 -23 -2 -8 12 -13
12 -23 2 -10 -10 -8 -14 10 -18 12 -4 19 -10 16 -15 -9 -15 6 -10 30 9 13 9
21 23 18 30 -5 16 13 16 26 0 12 -15 -16 -57 -34 -51 -6 2 -17 -3 -24 -12 -10
-13 -9 -15 9 -15 12 0 21 -6 21 -15 0 -26 49 -14 88 23 17 15 19 15 19 -3 0
-8 -7 -15 -15 -15 -8 0 -12 -6 -8 -15 4 -10 -1 -15 -14 -15 -13 0 -20 -7 -20
-19 0 -14 5 -18 20 -14 12 3 20 0 20 -7 0 -8 8 -10 21 -7 17 4 19 3 10 -6 -15
-15 -14 -27 4 -27 11 0 15 11 16 38 0 20 3 31 6 25 7 -19 26 -16 46 7 9 11 22
20 29 20 8 -1 6 -6 -5 -14 -10 -8 -15 -20 -11 -30 9 -23 19 -20 32 9 7 15 17
22 26 19 9 -3 21 6 32 25 17 28 22 31 67 29 42 -2 51 -6 58 -27 7 -17 6 -27
-3 -32 -16 -10 -31 0 -24 17 3 8 -1 14 -9 14 -18 0 -28 -17 -14 -25 5 -4 8
-14 5 -22 -3 -8 -2 -11 3 -8 5 3 12 1 16 -5 3 -5 2 -10 -3 -10 -12 0 -29 -43
-38 -92 -7 -41 -18 -49 -29 -21 -6 16 -8 15 -24 -6 -23 -30 -33 -15 -20 31 7
27 14 35 27 32 20 -5 50 12 39 22 -4 5 -26 1 -49 -7 -34 -13 -44 -22 -51 -49
-6 -23 -5 -36 2 -38 6 -2 11 -8 11 -13 0 -5 -11 -4 -25 1 -14 5 -32 7 -42 3
-11 -4 -14 -3 -9 5 4 7 1 12 -8 12 -9 0 -16 4 -16 10 0 6 -9 6 -26 0 -34 -13
-44 -13 -44 4 0 7 9 16 20 19 11 3 20 10 20 16 0 12 -18 4 -54 -23 -19 -16
-14 -36 9 -36 9 0 12 -6 9 -15 -3 -8 8 -28 25 -47 17 -18 31 -38 31 -45 0 -6
14 -18 30 -27 31 -15 39 -9 18 12 -6 6 -8 15 -3 19 4 5 10 2 12 -4 3 -7 20
-13 39 -13 38 0 45 -15 12 -26 -12 -3 -31 -15 -42 -25 -16 -15 -17 -22 -8 -31
10 -10 14 -8 18 9 8 29 39 25 66 -8 13 -15 18 -18 14 -7 -7 22 12 35 20 14 3
-9 13 -16 21 -16 9 0 13 -6 10 -15 -4 -8 -2 -17 3 -20 6 -4 10 3 10 13 0 11 7
22 14 25 10 4 13 1 10 -8 -6 -14 20 -49 30 -43 2 2 8 0 12 -5 4 -4 -2 -7 -14
-7 -12 0 -22 -5 -22 -11 0 -5 4 -7 10 -4 5 3 10 -3 10 -15 0 -12 -5 -18 -10
-15 -12 8 -13 -5 0 -25 6 -9 5 -17 -3 -22 -8 -5 -6 -8 6 -8 28 0 19 -27 -13
-39 -22 -7 -30 -16 -30 -33 0 -23 -20 -64 -20 -41 0 6 -12 13 -27 15 -20 2
-28 9 -28 22 0 21 -20 33 -29 18 -3 -4 5 -19 18 -33 12 -13 21 -30 18 -37 -6
-19 -19 -14 -26 10 -9 35 -24 8 -19 -33 4 -30 8 -36 24 -32 10 3 19 9 19 14 0
5 5 9 10 9 7 0 7 -7 -1 -21 -7 -13 -7 -19 -1 -15 6 3 14 1 18 -5 3 -6 0 -15
-7 -20 -8 -5 -9 -9 -3 -9 7 0 14 -9 17 -21 8 -29 28 -14 25 19 -3 24 0 27 25
24 27 -3 38 12 15 22 -7 3 -1 3 13 0 24 -5 59 -12 69 -13 2 -1 -6 -8 -18 -17
-25 -17 -29 -34 -8 -34 16 0 26 -28 17 -51 -13 -32 -47 -66 -74 -71 -45 -9
-41 10 10 43 26 17 40 29 30 25 -11 -3 -30 -9 -43 -12 -13 -3 -24 -10 -24 -15
0 -5 -9 -9 -20 -9 -29 0 -24 -21 11 -48 24 -20 32 -22 44 -12 11 9 18 10 28 1
17 -14 28 -4 19 17 -5 14 -3 15 10 5 8 -7 18 -10 21 -6 4 3 7 1 7 -5 0 -7 -7
-12 -15 -12 -8 0 -15 -4 -15 -9 0 -10 -6 -11 -78 -12 -24 0 -40 -4 -37 -10 4
-5 2 -9 -4 -9 -5 0 -11 5 -13 12 -2 6 -10 8 -17 4 -9 -6 -9 -11 1 -24 7 -10 8
-14 4 -10 -5 4 -16 2 -24 -5 -13 -10 -15 -9 -8 8 6 16 5 17 -5 8 -10 -10 -9
-16 3 -30 8 -10 13 -24 10 -32 -3 -10 0 -12 11 -8 9 3 19 2 22 -3 9 -15 42
-12 49 5 3 9 0 15 -9 15 -27 0 -15 28 18 41 17 7 37 13 42 14 6 0 16 4 23 8 7
5 12 3 12 -7 0 -8 -6 -17 -12 -19 -10 -4 -10 -6 0 -6 7 -1 22 4 33 9 12 7 19
7 19 1 0 -5 -9 -13 -21 -16 -12 -4 -18 -13 -15 -20 3 -9 -7 -19 -29 -27 -19
-6 -35 -17 -35 -23 0 -21 17 -36 33 -29 10 3 17 1 17 -5 0 -6 -7 -11 -15 -11
-8 0 -15 -7 -15 -15 0 -19 8 -19 42 -1 15 8 29 12 32 9 8 -8 -39 -43 -57 -43
-8 0 -22 -10 -31 -22 -9 -13 -14 -17 -11 -10 3 6 1 12 -5 12 -20 0 -28 43 -14
72 8 16 13 28 12 29 -2 1 -20 2 -40 3 -31 2 -36 0 -27 -11 14 -16 5 -17 -23
-2 -16 9 -19 8 -16 -2 3 -8 -5 -21 -16 -31 -21 -17 -21 -17 -1 -18 12 -1 3 -8
-25 -20 -25 -10 -39 -19 -32 -19 20 -1 14 -27 -10 -44 -13 -8 -20 -18 -15 -23
4 -4 20 4 35 19 27 26 29 26 46 9 11 -9 16 -12 13 -6 -4 6 5 17 18 24 14 7 25
18 25 24 0 6 -5 5 -12 -2 -14 -14 -28 -16 -28 -3 0 5 13 14 29 19 24 9 32 7
46 -8 21 -23 12 -40 -16 -33 -16 4 -20 2 -17 -8 3 -8 12 -13 22 -11 9 2 16 -2
16 -8 0 -5 -6 -10 -13 -10 -7 0 -18 -9 -25 -20 -15 -25 -31 -26 -39 -3 -4 10
-11 21 -15 24 -12 8 -58 -1 -58 -12 0 -13 37 -30 53 -23 8 3 17 -2 20 -10 4
-9 17 -16 29 -16 30 0 44 -10 52 -37 4 -13 15 -23 24 -23 12 0 9 -6 -10 -18
-16 -9 -28 -22 -28 -29 0 -7 -7 -13 -15 -13 -21 0 -19 -27 2 -39 10 -5 15 -13
11 -16 -10 -10 -38 20 -38 39 0 9 -5 16 -11 16 -6 0 -8 7 -5 17 4 9 1 20 -6
25 -21 13 -30 9 -24 -9 3 -10 2 -24 -3 -32 -10 -16 -31 -6 -31 15 0 8 -9 14
-20 14 -11 0 -20 -3 -20 -6 0 -9 28 -34 38 -34 6 0 13 -8 16 -17 6 -15 8 -15
16 -3 19 30 23 -2 5 -36 -13 -25 -24 -34 -36 -31 -15 4 -16 1 -8 -20 6 -15 5
-22 -1 -18 -13 8 -52 -14 -45 -25 3 -5 20 -7 38 -3 26 5 30 3 20 -8 -7 -7 -13
-20 -13 -29 0 -12 -11 -17 -40 -18 -29 -2 -40 1 -40 12 0 9 7 13 23 9 21 -4
21 -4 4 10 -15 12 -16 19 -8 36 17 30 14 46 -4 31 -9 -7 -18 -10 -22 -6 -3 3
-1 6 5 6 7 0 12 7 12 16 0 8 -4 12 -10 9 -5 -3 -10 -2 -10 4 0 5 9 12 19 16
20 6 37 35 22 35 -5 0 -12 -7 -15 -15 -5 -14 -8 -14 -30 1 -14 8 -30 13 -36 9
-21 -13 -30 6 -14 30 8 13 11 25 7 27 -10 5 -48 2 -87 -8 -21 -5 -31 -3 -38
10 -5 9 -12 14 -16 12 -4 -3 -9 21 -10 51 -2 39 2 61 13 73 15 16 14 18 -15
22 -21 3 -34 0 -37 -9 -3 -7 -11 -13 -17 -13 -8 0 -11 -12 -8 -35 4 -31 -10
-50 -20 -27 -1 5 -18 5 -37 0 -24 -7 -31 -12 -23 -20 8 -8 26 -8 62 -1 45 9
51 8 48 -6 -2 -10 -12 -15 -26 -13 -26 4 -29 -13 -4 -27 15 -9 15 -10 0 -11
-9 0 -18 6 -21 13 -2 7 -21 11 -50 10 -52 -2 -52 -2 -34 28 10 17 10 23 -1 26
-25 9 -11 23 24 23 27 0 37 5 41 20 3 11 10 20 15 20 6 0 7 11 4 24 -3 14 -1
28 5 32 8 5 6 11 -7 21 -18 13 -17 15 10 36 17 14 27 29 23 38 -4 11 -6 11 -6
-2 -1 -13 -14 -18 -56 -21 -31 -3 -63 -12 -73 -21 -10 -10 -22 -14 -25 -10 -4
3 -19 0 -33 -8 -23 -12 -27 -11 -40 5 -10 14 -11 23 -3 33 8 9 8 13 1 13 -6 0
-16 10 -23 21 -9 17 -8 24 2 31 11 7 11 11 2 15 -7 2 -13 14 -13 25 0 11 -8
22 -20 25 -21 6 -28 23 -10 23 13 0 4 90 -11 105 -7 7 -16 2 -28 -14 l-18 -24
-6 23 c-6 22 -7 22 -29 8 -14 -9 -24 -27 -26 -45 -5 -49 -42 -63 -137 -53 -44
5 -146 11 -227 12 -115 2 -149 6 -153 17 -3 8 -4 14 -3 15 36 14 43 26 46 79
3 48 0 57 -20 71 -25 18 -103 22 -113 5 -4 -6 -21 -9 -39 -8 -17 2 -37 0 -43
-4 -7 -4 -23 -1 -35 7 -13 8 -25 14 -28 13 -3 -1 -20 11 -37 27 -37 33 -53 87
-33 111 16 19 54 19 70 0 13 -15 5 -70 -13 -93 -13 -16 -6 -22 35 -31 46 -11
59 -5 49 22 -5 12 -11 43 -15 69 -4 26 -12 50 -17 54 -6 3 -35 8 -65 11 -49 4
-55 2 -63 -19 -4 -13 -7 -38 -6 -56 3 -26 -2 -35 -23 -48 -23 -13 -27 -22 -26
-56 1 -22 7 -44 15 -49 7 -4 10 -11 7 -15 -9 -8 -68 34 -68 48 0 6 7 16 17 23
19 14 8 39 -13 31 -20 -8 -17 4 4 20 16 12 16 13 -2 20 -11 4 -30 0 -49 -11
l-30 -18 6 64 c5 61 9 68 56 117 46 48 50 56 46 90 -6 38 -13 118 -14 140 -1
21 -16 13 -17 -10 -1 -13 -4 -52 -7 -88 -3 -36 -5 -73 -6 -82 -1 -9 -7 -23
-13 -30 -23 -24 -58 -77 -58 -86 0 -12 -30 -20 -48 -15 -6 3 -9 9 -6 15 7 11
-15 58 -28 58 -5 0 -12 -8 -15 -18 -4 -9 -16 -27 -28 -40 l-22 -22 -7 31 c-3
17 -1 39 4 49 6 10 10 30 10 43 0 18 8 28 30 37 52 21 137 91 159 130 7 14 10
22 6 18 -10 -9 -45 9 -45 24 0 5 9 8 19 5 14 -3 18 -1 14 9 -3 8 -11 14 -19
14 -8 0 -14 4 -14 9 0 5 -9 13 -20 16 -11 3 -20 13 -20 22 0 9 6 13 14 10 7
-3 19 0 25 6 9 9 14 8 21 -3 7 -12 12 -12 22 -2 10 10 8 15 -10 28 -12 8 -22
20 -22 26 0 7 -10 22 -22 35 -21 22 -21 24 -5 40 16 16 17 16 17 0 0 -9 7 -17
15 -17 13 0 14 4 4 22 -10 18 -9 20 4 15 9 -3 18 -1 20 6 3 9 7 9 19 -1 9 -7
23 -9 32 -6 15 6 15 9 -4 26 -14 13 -19 26 -14 40 3 11 2 23 -3 27 -13 9 -48
65 -45 74 1 4 -5 7 -14 7 -9 0 -14 6 -11 13 7 19 -12 47 -27 41 -9 -3 -17 3
-21 15 -3 12 -12 21 -18 21 -7 0 -18 9 -25 20 -10 17 -10 20 5 20 10 -1 29 -7
43 -15 50 -29 56 -11 7 21 -21 14 -55 24 -101 28 -52 4 -72 10 -82 25 -23 32
-101 53 -217 58 -107 6 -148 -1 -252 -40 -62 -23 -116 -81 -99 -108 3 -6 -8
-15 -25 -22 -33 -12 -42 -41 -15 -51 9 -4 23 -1 30 5 7 6 17 8 23 5 5 -3 23 6
41 20 29 25 32 25 49 10 10 -9 21 -16 25 -16 4 0 17 -9 29 -20 19 -18 23 -19
33 -6 10 15 24 12 24 -5 0 -4 -34 -47 -75 -95 -41 -49 -75 -95 -75 -102 0 -7
-4 -10 -10 -7 -5 3 -10 0 -10 -7 0 -7 -9 -19 -20 -26 -11 -7 -20 -19 -20 -27
0 -8 -13 -38 -28 -67 -40 -74 -54 -118 -39 -118 7 0 21 -7 31 -15 15 -11 17
-18 9 -26 -6 -6 -9 -18 -6 -25 3 -8 0 -14 -6 -14 -6 0 -11 5 -11 10 0 6 -7 10
-15 10 -8 0 -15 -4 -15 -10 0 -5 -7 -10 -15 -10 -8 0 -17 -14 -21 -37 -5 -29
-3 -39 12 -50 18 -13 18 -14 -2 -19 -21 -5 -21 -8 -8 -51 23 -77 -4 -87 -75
-28 l-24 20 6 -52 c3 -29 2 -53 -3 -53 -5 0 -16 -7 -24 -16 -15 -14 -19 -13
-47 15 -33 33 -49 37 -97 20 -42 -15 -112 20 -112 56 0 27 -15 41 -25 25 -4
-6 -18 -15 -31 -20 -13 -5 -28 -20 -33 -33 -12 -32 -87 -96 -144 -125 -44 -22
-97 -73 -97 -93 0 -5 0 -11 0 -14 0 -3 -6 -18 -15 -35 -19 -37 -19 -50 0 -50
8 0 12 -6 9 -14 -3 -8 3 -16 15 -19 21 -5 29 -31 12 -41 -5 -3 -20 3 -34 14
-32 25 -44 25 -59 0 -17 -27 -47 -25 -78 5 -19 18 -41 27 -71 30 -75 6 -133
26 -162 56 -24 25 -33 28 -66 23 -27 -4 -40 -2 -50 10 -7 9 -25 16 -40 16 -35
0 -67 24 -73 54 -3 14 -2 23 2 21 22 -14 56 136 52 230 -2 47 -59 163 -87 179
-11 6 -22 12 -24 13 -2 2 2 10 10 19 13 16 12 17 -8 12 -13 -4 -23 -2 -23 3 0
6 -8 5 -19 -1 -25 -13 -34 -13 -26 1 4 5 18 15 32 20 20 7 23 12 13 24 -6 7
-17 12 -24 9 -28 -11 -116 46 -116 75 0 14 -11 14 -46 1 -19 -8 -30 -8 -38 0
-7 7 -5 10 7 10 37 0 97 25 92 38 -3 8 -5 24 -5 36 0 30 -112 116 -151 116
-16 0 -29 4 -29 10 0 5 -7 7 -15 4 -8 -4 -22 -1 -30 6 -8 6 -19 9 -25 5 -7 -4
-3 -13 9 -23 20 -17 25 -46 23 -109 -2 -25 -7 -33 -21 -33 -25 0 -52 26 -45
44 3 7 -2 16 -10 19 -9 4 -16 13 -16 21 0 9 -13 22 -29 30 -24 13 -41 34 -41
52 0 2 12 4 26 4 14 0 23 -4 20 -9 -6 -8 55 -23 63 -15 8 7 -59 64 -76 65 -40
3 -122 -2 -184 -12 -72 -11 -198 -68 -192 -86 3 -7 -4 -9 -18 -6 l-23 6 23
-31 c23 -33 61 -43 61 -17 0 8 5 15 10 15 6 0 10 -6 10 -12 0 -10 2 -10 8 -2
8 13 74 14 83 1 3 -4 29 -10 57 -14 28 -3 49 -10 46 -14 -3 -5 -18 -7 -35 -4
-16 3 -29 1 -29 -5 0 -5 7 -10 15 -10 19 0 19 -16 0 -24 -30 -11 -16 -29 18
-22 l32 6 -25 -15 c-14 -8 -20 -15 -15 -16 6 -1 15 -3 20 -4 6 -2 19 -3 30 -4
17 -2 16 -4 -8 -17 -15 -8 -25 -19 -22 -23 11 -19 -26 -19 -87 0 -34 10 -74
19 -88 19 -14 0 -55 11 -93 24 -37 14 -67 23 -67 20 0 -3 -6 1 -14 9 -17 17
-65 11 -73 -9 -3 -8 -11 -14 -18 -14 -7 0 -18 -7 -25 -15 -10 -12 -7 -15 13
-20 18 -5 23 -12 20 -26 -5 -17 1 -19 73 -17 60 1 87 -3 114 -17 19 -11 64
-31 100 -46 48 -20 64 -31 62 -43 -2 -12 3 -16 15 -14 10 2 19 -4 21 -16 3
-15 -1 -18 -22 -14 -19 4 -27 0 -32 -14 -3 -10 -1 -25 5 -32 13 -15 0 -29 -36
-40 -13 -4 -23 -15 -23 -26 0 -11 -8 -24 -17 -30 -17 -10 -17 -11 1 -23 11 -7
37 -27 58 -46 l39 -34 -25 -24 c-14 -13 -32 -23 -39 -23 -19 0 -39 25 -42 53
-1 12 -3 28 -4 35 0 6 -8 12 -16 12 -18 0 -20 17 -2 23 6 2 0 4 -15 4 -17 0
-28 -5 -28 -13 0 -8 -3 -13 -7 -12 -5 2 -25 -14 -46 -35 -30 -29 -35 -37 -20
-37 15 0 15 -2 3 -9 -8 -6 -18 -8 -22 -5 -4 3 -23 2 -42 -1 -26 -5 -36 -13
-41 -33 -4 -15 -1 -28 6 -33 9 -5 6 -15 -10 -37 -28 -40 -27 -50 7 -44 24 5
26 4 13 -12 -22 -26 -1 -36 44 -21 46 17 71 4 39 -20 -10 -8 -14 -15 -7 -15 6
0 14 4 18 10 3 5 13 6 21 3 10 -4 17 2 21 16 5 21 23 30 23 11 0 -5 14 -10 31
-10 26 0 30 -3 23 -17 -4 -10 -7 -28 -7 -40 1 -13 -3 -23 -8 -23 -5 0 -9 -12
-9 -28 0 -15 -7 -38 -16 -50 -15 -22 -15 -24 2 -37 11 -8 38 -22 62 -31 56
-22 53 -45 -8 -59 -25 -5 -54 -15 -65 -22 -18 -11 -15 -12 23 -13 37 0 42 -3
43 -22 0 -25 23 -61 82 -131 21 -25 46 -62 56 -82 l18 -37 -31 -63 c-42 -85
-54 -97 -76 -85 -28 15 -55 12 -73 -8 -19 -21 -22 -53 -6 -69 8 -8 5 -17 -11
-33 l-22 -22 -55 56 c-30 31 -59 56 -63 56 -5 0 -12 9 -15 20 -8 24 -45 62
-97 97 -29 20 -38 33 -43 66 -9 57 -30 87 -60 87 -23 0 -25 4 -25 47 0 43 -4
52 -46 94 l-46 47 16 56 c15 50 15 59 1 85 -21 41 -19 84 4 100 16 12 18 23
13 75 -2 33 -4 85 -4 114 1 28 -3 52 -8 52 -6 0 -10 -4 -10 -10 0 -22 -18 -8
-23 18 -3 17 -21 40 -41 56 -20 15 -36 35 -36 45 0 9 -9 27 -19 38 -11 11 -32
61 -47 109 -15 49 -31 95 -37 101 -5 7 -7 23 -3 36 6 25 -12 98 -39 162 -9 22
-23 56 -32 75 -29 71 -48 104 -63 108 -12 4 -13 2 -4 -9 6 -8 17 -31 24 -53
10 -32 10 -40 -1 -48 -11 -8 -10 -9 3 -5 9 3 19 -1 22 -9 9 -23 7 -26 -6 -19
-7 4 -6 0 3 -7 10 -8 24 -30 32 -50 14 -32 14 -37 0 -42 -17 -7 -53 32 -46 49
2 6 -1 22 -6 36 -5 13 -10 18 -10 12 -1 -19 -18 -15 -23 5 -3 10 2 24 10 32 9
8 11 15 6 16 -5 1 -22 5 -37 8 -15 4 -25 11 -22 16 4 7 13 6 25 0 24 -13 30
-13 30 3 0 7 -9 18 -20 25 -12 7 -19 16 -16 21 3 4 -8 5 -25 3 -22 -3 -29 0
-29 12 0 9 5 16 10 16 18 0 11 18 -10 25 -11 3 -20 11 -20 17 0 5 6 8 13 5 8
-3 14 2 14 11 0 23 -16 42 -31 36 -6 -2 -24 9 -40 25 -27 28 -27 29 -7 36 12
3 21 11 21 16 0 13 -12 11 -35 -5 -17 -11 -22 -11 -32 0 -11 11 -7 14 22 20
19 3 35 8 35 11 0 2 -20 26 -45 52 -25 27 -60 67 -78 90 -17 23 -33 37 -35 31
-2 -5 -8 -10 -13 -10 -4 0 -6 7 -3 15 4 10 -15 35 -53 73 -98 94 -154 142
-168 142 -7 0 -15 3 -17 8 -5 11 -89 66 -130 85 -34 16 -108 17 -889 17 -469
0 -858 -4 -863 -9 -16 -12 -106 -22 -106 -11 0 5 21 11 48 13 26 2 -922 4
-2106 5 l-2152 2 0 -300z m3560 266 c0 -3 -4 -8 -10 -11 -5 -3 -10 -1 -10 4 0
6 5 11 10 11 6 0 10 -2 10 -4z m7932 -18 c-7 -7 -12 -8 -12 -2 0 14 12 26 19
19 2 -3 -1 -11 -7 -17z m238 -12 c-14 -14 -24 0 -16 21 6 15 8 15 16 3 6 -9 5
-19 0 -24z m-200 5 c0 -5 -7 -11 -14 -14 -10 -4 -13 -1 -9 9 6 15 23 19 23 5z
m-9662 -29 c2 -7 -2 -12 -9 -12 -6 0 -23 -12 -36 -27 l-24 -28 -21 25 -20 25
43 5 c30 3 43 9 41 18 -3 17 20 11 26 -6z m9952 -7 c10 -12 10 -15 -4 -15 -9
0 -16 7 -16 15 0 8 2 15 4 15 2 0 9 -7 16 -15z m-9270 -10 c0 -8 -4 -15 -8
-15 -5 0 -9 7 -9 15 0 8 4 15 9 15 4 0 8 -7 8 -15z m9375 5 c-3 -5 -13 -10
-21 -10 -8 0 -14 5 -14 10 0 6 9 10 21 10 11 0 17 -4 14 -10z m-10195 -14 c0
-3 -4 -8 -10 -11 -5 -3 -10 -1 -10 4 0 6 5 11 10 11 6 0 10 -2 10 -4z m-95
-16 c-3 -5 -10 -10 -16 -10 -5 0 -9 5 -9 10 0 6 7 10 16 10 8 0 12 -4 9 -10z
m10377 -12 c-7 -7 -12 -8 -12 -2 0 14 12 26 19 19 2 -3 -1 -11 -7 -17z m-8658
3 c4 -5 -3 -7 -14 -4 -23 6 -26 13 -6 13 8 0 17 -4 20 -9z m8588 -13 c-7 -7
-12 -8 -12 -2 0 14 12 26 19 19 2 -3 -1 -11 -7 -17z m-10077 -4 c30 11 39 -6
9 -19 -24 -10 -31 -9 -41 4 -6 9 -9 20 -6 24 3 5 9 3 13 -3 5 -7 16 -10 25 -6z
m675 6 c0 -5 -4 -10 -10 -10 -5 0 -10 5 -10 10 0 6 5 10 10 10 6 0 10 -4 10
-10z m9524 -12 c-5 -7 -2 -9 7 -6 53 22 52 22 44 0 -5 -16 -2 -22 9 -22 20 0
21 -17 2 -35 -18 -19 -53 -11 -77 16 -23 27 -24 33 -4 25 12 -4 14 0 9 21 -5
18 -4 24 5 19 6 -4 8 -12 5 -18z m-10264 2 c18 -12 2 -12 -25 0 -13 6 -15 9
-5 9 8 0 22 -4 30 -9z m10110 -20 c0 -5 -5 -10 -11 -10 -5 0 -7 5 -4 10 3 6 8
10 11 10 2 0 4 -4 4 -10z m330 -35 c0 -9 -6 -12 -15 -9 -8 4 -12 10 -9 15 8
14 24 10 24 -6z m-11267 -12 c3 -5 -1 -14 -9 -21 -12 -11 -14 -9 -14 8 0 20
14 27 23 13z m11237 -23 c12 -8 11 -10 -7 -10 -13 0 -23 5 -23 10 0 13 11 13
30 0z m-110 -20 c0 -5 -2 -10 -4 -10 -3 0 -8 5 -11 10 -3 6 -1 10 4 10 6 0 11
-4 11 -10z m200 2 c0 -13 -12 -22 -22 -16 -10 6 -1 24 13 24 5 0 9 -4 9 -8z
m-11296 -28 c9 -24 7 -27 -9 -10 -17 17 -19 26 -6 26 5 0 12 -7 15 -16z m5333
10 c-3 -3 -12 -4 -19 -1 -8 3 -5 6 6 6 11 1 17 -2 13 -5z m5813 -24 c0 -5 -4
-10 -10 -10 -5 0 -10 5 -10 10 0 6 5 10 10 10 6 0 10 -4 10 -10z m268 -22 c15
5 15 -3 2 -29 -9 -15 -7 -19 7 -19 12 0 14 -3 6 -11 -8 -8 -17 -8 -31 0 -11 6
-31 11 -44 11 -18 0 -20 2 -8 10 8 5 11 12 7 16 -3 4 -13 1 -21 -5 -11 -10
-19 -9 -35 1 -38 24 -32 34 20 31 41 -2 49 0 49 15 1 15 3 14 18 -4 10 -11 23
-19 30 -16z m-340 4 c6 -18 -15 -14 -22 4 -4 10 -1 14 6 12 6 -2 14 -10 16
-16z m-10148 -2 c0 -5 -9 -10 -20 -10 -11 0 -20 5 -20 10 0 6 9 10 20 10 11 0
20 -4 20 -10z m110 0 c0 -5 -8 -10 -17 -10 -10 0 -29 -9 -43 -20 -27 -21 -50
-26 -50 -10 0 6 6 10 13 10 8 0 22 9 32 20 19 21 65 28 65 10z m60 0 c0 -5 -5
-10 -11 -10 -5 0 -7 5 -4 10 3 6 8 10 11 10 2 0 4 -4 4 -10z m-1345 -20 c3 -5
-1 -10 -10 -10 -9 0 -13 5 -10 10 3 6 8 10 10 10 2 0 7 -4 10 -10z m11465 0
c0 -5 -7 -10 -16 -10 -8 0 -12 5 -9 10 3 6 10 10 16 10 5 0 9 -4 9 -10z
m-11535 -20 c-3 -5 -12 -10 -18 -10 -7 0 -6 4 3 10 19 12 23 12 15 0z m5725 6
c0 -3 -4 -8 -10 -11 -5 -3 -10 -1 -10 4 0 6 5 11 10 11 6 0 10 -2 10 -4z
m5774 -21 c7 -25 6 -26 -31 -10 -41 17 -43 35 -4 32 20 -1 32 -8 35 -22z m505
-66 c-21 -13 -46 -11 -52 5 -3 8 1 17 9 20 8 3 14 1 14 -4 0 -6 5 -10 10 -10
6 0 10 8 10 18 1 15 2 15 11 -2 9 -14 8 -20 -2 -27z m-10825 10 c-3 -5 -10 -7
-15 -3 -5 3 -7 10 -3 15 3 5 10 7 15 3 5 -3 7 -10 3 -15z m10291 11 c3 -5 1
-10 -4 -10 -6 0 -11 5 -11 10 0 6 2 10 4 10 3 0 8 -4 11 -10z m-10235 -30 c20
-12 9 -21 -18 -13 -12 3 -19 9 -16 14 7 11 15 11 34 -1z m90 0 c0 -5 -8 -10
-17 -10 -15 0 -16 2 -3 10 19 12 20 12 20 0z m4494 4 c25 -9 19 -33 -9 -40
-26 -7 -50 5 -27 13 6 3 12 11 12 19 0 16 2 16 24 8z m6035 -29 c14 0 26 -6
29 -14 4 -11 -2 -12 -24 -7 -16 4 -37 8 -46 9 -13 1 -14 4 -6 15 6 7 14 9 17
5 3 -4 17 -8 30 -8z m-2024 -5 c3 -5 1 -10 -4 -10 -6 0 -11 5 -11 10 0 6 2 10
4 10 3 0 8 -4 11 -10z m-547 -30 c-7 -11 -16 -20 -20 -20 -5 0 -3 9 4 20 7 11
16 20 20 20 5 0 3 -9 -4 -20z m-3453 -10 c3 -5 1 -10 -4 -10 -6 0 -11 5 -11
10 0 6 2 10 4 10 3 0 8 -4 11 -10z m5813 -21 c-2 -6 -8 -10 -13 -10 -5 0 -11
4 -13 10 -2 6 4 11 13 11 9 0 15 -5 13 -11z m302 -24 c-7 -8 -17 -12 -23 -8
-6 4 -3 11 8 19 23 17 32 10 15 -11z m-60 -15 c0 -5 -12 -10 -26 -10 -14 0
-23 4 -19 10 3 6 15 10 26 10 10 0 19 -4 19 -10z m158 -75 c-2 -1 -18 -5 -36
-8 l-33 -7 18 24 c17 22 19 23 36 8 9 -8 16 -16 15 -17z m-308 15 c0 -5 -5
-10 -11 -10 -5 0 -7 5 -4 10 3 6 8 10 11 10 2 0 4 -4 4 -10z m-1820 -10 c0 -5
-4 -10 -9 -10 -6 0 -13 5 -16 10 -3 6 1 10 9 10 9 0 16 -4 16 -10z m-4051 -14
c10 -12 8 -13 -8 -9 -12 3 -21 9 -21 14 0 14 16 11 29 -5z m101 -31 c-7 -9
-15 -13 -17 -11 -7 7 7 26 19 26 6 0 6 -6 -2 -15z m4019 -20 l24 -26 -31 3
c-17 1 -28 6 -25 11 2 4 -1 14 -7 22 -22 27 13 17 39 -10z m2031 16 c0 -10
-24 -21 -43 -21 -7 0 -3 7 7 15 22 17 36 19 36 6z m-2496 -15 c-7 -19 41 -111
68 -131 22 -16 22 -16 -19 -11 -38 4 -43 2 -43 -15 0 -15 5 -18 23 -14 24 5
45 -8 64 -42 10 -17 9 -24 -2 -33 -11 -9 -22 -7 -52 11 -21 12 -45 28 -53 34
-19 15 -70 25 -70 14 0 -5 5 -9 12 -9 9 0 9 -3 0 -12 -10 -10 -14 -10 -21 0
-6 10 -11 10 -21 -3 -9 -11 -26 -15 -54 -14 -41 3 -41 3 -38 -30 2 -30 1 -32
-14 -16 -24 23 -30 83 -9 91 8 4 22 18 30 33 17 34 100 121 115 121 7 0 23 9
37 20 30 23 55 26 47 6z m-3544 -22 c0 -2 -9 -4 -21 -4 -11 0 -18 4 -14 10 5
8 35 3 35 -6z m-55 -23 c-3 -6 -11 -11 -17 -11 -6 0 -6 6 2 15 14 17 26 13 15
-4z m-2481 -12 c-12 -13 -20 -16 -22 -9 -3 7 2 16 9 21 25 16 32 9 13 -12z
m-521 -56 c-51 -75 -79 -135 -94 -201 -12 -60 -20 -60 -29 1 l-7 42 -12 -32
c-11 -28 -31 -46 -31 -28 0 12 43 90 54 97 6 4 7 8 3 8 -4 0 -3 9 3 20 23 43
139 165 148 156 3 -3 -13 -32 -35 -63z m7107 58 c0 -19 -22 -23 -38 -7 -15 15
-14 16 11 16 15 0 27 -4 27 -9z m-7140 -8 c0 -5 -5 -15 -10 -23 -8 -12 -10
-11 -10 8 0 12 5 22 10 22 6 0 10 -3 10 -7z m-72 -69 c-27 -59 -27 -58 -33
-53 -2 3 7 29 21 58 14 29 28 51 30 48 3 -2 -5 -27 -18 -53z m392 11 c7 -9 19
-14 26 -11 6 2 14 -5 17 -16 4 -14 11 -19 21 -15 17 7 22 -8 6 -18 -5 -3 -7
-18 -4 -33 8 -38 -28 -104 -63 -118 -72 -28 -98 -33 -107 -24 -6 6 -1 13 15
19 24 10 24 10 2 10 -43 2 -127 70 -108 89 3 3 10 0 15 -8 8 -12 10 -10 10 8
0 12 5 22 11 22 5 0 9 10 7 23 -2 13 2 21 9 20 6 -2 21 9 31 22 11 14 28 25
38 25 11 0 26 5 34 10 20 13 25 12 40 -5z m3960 10 c0 -2 -9 -9 -20 -15 -16
-9 -20 -8 -20 5 0 8 9 15 20 15 11 0 20 -2 20 -5z m-3345 -29 c37 -13 65 -44
65 -74 0 -18 -28 -26 -43 -14 -7 6 -24 8 -37 5 -16 -4 -21 -3 -16 5 4 7 14 12
22 12 27 0 11 34 -23 51 -18 9 -30 19 -26 23 9 8 12 8 58 -8z m-829 -38 c-30
-41 -76 -142 -82 -180 -4 -21 -11 -38 -16 -38 -27 0 34 165 79 213 32 33 42
35 19 5z m-257 -40 c-23 -60 -26 -64 -36 -54 -4 4 -2 15 5 24 6 9 18 32 26 50
24 52 28 37 5 -20z m1671 27 c0 -8 -2 -15 -4 -15 -2 0 -6 7 -10 15 -3 8 -1 15
4 15 6 0 10 -7 10 -15z m200 -1 c0 -8 -5 -12 -10 -9 -6 4 -8 11 -5 16 9 14 15
11 15 -7z m7210 -4 c0 -5 -7 -10 -16 -10 -8 0 -12 5 -9 10 3 6 10 10 16 10 5
0 9 -4 9 -10z m-7140 -16 c0 -8 -4 -12 -10 -9 -5 3 -10 10 -10 16 0 5 5 9 10
9 6 0 10 -7 10 -16z m-1920 -49 c-13 -25 -27 -45 -32 -45 -4 0 3 23 18 51 14
28 28 48 31 45 4 -3 -4 -26 -17 -51z m780 -37 c-12 -40 -34 -90 -50 -113 -46
-67 -152 -157 -167 -141 -3 2 17 20 44 40 76 54 153 164 168 238 11 56 18 74
22 60 3 -7 -5 -45 -17 -84z m183 65 c5 -26 4 -26 -9 -8 -16 22 -18 35 -5 35 5
0 11 -12 14 -27z m7990 5 c9 -31 2 -33 -11 -3 -6 14 -8 25 -3 25 5 0 11 -10
14 -22z m83 -25 c-7 -7 -26 7 -26 19 0 6 6 6 15 -2 9 -7 13 -15 11 -17z m94
-17 c-1 -21 -1 -21 -15 -2 -19 25 -19 37 0 30 8 -4 15 -16 15 -28z m-8435 -13
c-10 -55 -47 -114 -106 -167 -76 -68 -81 -56 -8 22 38 40 74 92 89 125 14 31
27 57 29 57 2 0 0 -17 -4 -37z m1062 15 c-3 -8 -6 -5 -6 6 -1 11 2 17 5 13 3
-3 4 -12 1 -19z m1668 13 c3 -6 -4 -15 -15 -21 -22 -12 -23 -10 -14 14 7 18
20 21 29 7z m649 3 c13 -5 14 -10 5 -20 -8 -10 -16 -11 -31 -3 -17 9 -18 13
-7 20 17 11 14 10 33 3z m576 -4 c0 -5 -6 -10 -14 -10 -8 0 -18 5 -21 10 -3 6
3 10 14 10 12 0 21 -4 21 -10z m-1392 -24 c15 -15 30 -106 17 -106 -4 0 -25 5
-46 12 -28 8 -39 17 -39 30 0 10 -7 32 -15 47 -8 16 -11 32 -7 36 11 10 74 -2
90 -19z m3662 3 c7 -11 9 -23 6 -26 -8 -9 -36 17 -36 33 0 21 18 17 30 -7z
m-3910 -9 c0 -5 -5 -10 -11 -10 -5 0 -7 5 -4 10 3 6 8 10 11 10 2 0 4 -4 4
-10z m4160 -11 c0 -6 -4 -7 -10 -4 -5 3 -10 11 -10 16 0 6 5 7 10 4 6 -3 10
-11 10 -16z m-5437 -9 c3 -11 1 -23 -4 -26 -5 -3 -9 6 -9 20 0 31 6 34 13 6z
m4995 -16 c31 -20 59 -41 60 -45 2 -5 10 -9 17 -9 8 0 26 -15 40 -34 18 -24
31 -32 45 -29 24 6 51 -13 44 -32 -5 -13 -32 -10 -44 4 -3 3 -16 12 -29 19
-20 12 -25 12 -32 0 -7 -10 -9 -9 -9 5 0 9 -11 23 -25 29 -14 6 -50 36 -80 66
-76 77 -74 81 13 26z m312 33 c0 -12 -33 -67 -37 -63 -8 8 18 66 28 66 5 0 9
-2 9 -3z m-5343 -29 c-3 -8 -6 -5 -6 6 -1 11 2 17 5 13 3 -3 4 -12 1 -19z m72
-15 c-1 -34 -2 -35 -9 -13 -11 36 -11 50 0 50 6 0 10 -17 9 -37z m-272 -15
c-3 -7 -5 -2 -5 12 0 14 2 19 5 13 2 -7 2 -19 0 -25z m5643 -13 c0 -9 -6 -12
-15 -9 -8 4 -15 10 -15 15 0 5 7 9 15 9 8 0 15 -7 15 -15z m-534 -42 c14 -15
34 -28 45 -30 46 -7 111 -73 73 -73 -10 0 -26 7 -36 17 -11 10 -18 12 -18 4 0
-6 6 -14 14 -17 8 -3 20 -19 26 -35 7 -16 16 -29 19 -29 4 0 23 -14 42 -31 19
-17 46 -37 62 -45 15 -8 27 -18 27 -22 0 -10 -34 -40 -72 -64 -52 -34 -55 -32
-206 131 -23 24 -30 40 -26 56 6 25 10 67 13 128 0 20 3 37 6 37 3 0 17 -12
31 -27z m464 -3 c0 -5 -4 -10 -10 -10 -5 0 -10 5 -10 10 0 6 5 10 10 10 6 0
10 -4 10 -10z m-6100 -10 c0 -5 -2 -10 -4 -10 -3 0 -8 5 -11 10 -3 6 -1 10 4
10 6 0 11 -4 11 -10z m6154 -38 c-22 -20 -53 -44 -68 -52 -15 -8 -44 -29 -63
-48 -59 -55 -79 -65 -102 -52 -28 14 -26 24 7 46 15 9 32 24 38 32 6 9 21 12
42 9 27 -5 38 1 83 44 28 27 55 47 59 44 4 -3 13 2 20 10 7 9 15 13 19 10 3
-4 -13 -23 -35 -43z m-654 24 c0 -3 -4 -8 -10 -11 -5 -3 -10 -1 -10 4 0 6 5
11 10 11 6 0 10 -2 10 -4z m-3163 -30 c16 -16 34 -89 24 -99 -5 -5 -25 0 -46
10 -28 13 -41 28 -51 58 -10 30 -10 41 -1 47 14 9 58 0 74 -16z m3115 2 c27
-16 78 -66 78 -77 0 -4 -9 -16 -19 -25 -18 -16 -20 -16 -39 11 -10 15 -22 38
-26 50 -4 11 -13 24 -21 27 -17 6 -20 26 -5 26 6 0 20 -6 32 -12z m-5453 -30
c-5 -18 -9 -34 -9 -36 0 -2 10 0 23 3 15 4 18 4 8 -3 -7 -5 -11 -14 -7 -20 3
-6 -13 -20 -37 -31 -53 -26 -66 -27 -41 -3 11 9 18 24 16 34 -2 9 2 19 7 23 6
3 11 16 11 29 0 26 7 36 26 36 9 0 10 -8 3 -32z m212 8 c-7 -8 -26 -17 -44
-20 -18 -3 -44 -12 -58 -20 -14 -7 -39 -16 -55 -20 -28 -7 -28 -7 -9 8 11 8
25 16 30 16 6 0 24 7 40 16 33 18 73 32 94 33 10 1 11 -2 2 -13z m5327 2 c7
-7 12 -19 12 -27 0 -11 -4 -10 -20 4 -21 19 -26 35 -12 35 4 0 13 -5 20 -12z
m292 -21 c0 -20 -1 -20 -16 -5 -9 9 -13 21 -9 27 10 16 25 3 25 -22z m-3710 2
c0 -5 -9 -9 -20 -9 -19 0 -26 11 -14 23 8 8 34 -3 34 -14z m-2634 -45 c-3 -9
-6 -21 -6 -27 0 -8 -3 -8 -10 -1 -12 12 -3 44 12 44 6 0 7 -7 4 -16z m8834
-54 c0 -5 -5 -10 -11 -10 -5 0 -7 5 -4 10 3 6 8 10 11 10 2 0 4 -4 4 -10z
m-6065 -30 c4 -7 13 -6 26 1 12 6 22 9 23 7 4 -5 34 -71 47 -103 11 -28 13
-71 2 -88 -9 -15 -59 25 -70 56 -6 18 -20 56 -32 85 -11 28 -17 52 -12 52 6 0
13 -5 16 -10z m1063 -8 c2 -7 -2 -10 -12 -6 -9 3 -16 11 -16 16 0 13 23 5 28
-10z m622 2 c0 -8 -5 -12 -10 -9 -6 4 -8 11 -5 16 9 14 15 11 15 -7z m4380 -4
c0 -5 -9 -10 -20 -10 -25 0 -26 -18 -2 -36 9 -7 12 -14 5 -14 -6 0 -15 5 -18
10 -3 6 -17 7 -31 4 -39 -10 -28 12 19 35 49 24 47 24 47 11z m-110 -35 c0 -9
-9 -15 -24 -15 -30 0 -43 17 -19 23 34 9 43 7 43 -8z m-2710 -22 c27 -23 40
-53 24 -53 -11 0 -84 62 -84 71 0 18 31 9 60 -18z m-1796 -105 c-15 -32 -34
-58 -41 -58 -7 0 -13 4 -13 9 0 16 42 106 59 125 29 33 26 -11 -5 -76z m-689
62 c3 -5 1 -10 -4 -10 -6 0 -11 5 -11 10 0 6 2 10 4 10 3 0 8 -4 11 -10z
m2015 -15 c0 -8 -7 -15 -15 -15 -8 0 -15 7 -15 15 0 8 7 15 15 15 8 0 15 -7
15 -15z m-1830 -20 c0 -23 -18 -27 -29 -7 -6 11 -8 22 -5 25 10 9 34 -4 34
-18z m-54 -44 c14 3 44 -12 44 -23 0 -5 -10 -6 -21 -3 -12 4 -29 8 -38 9 -9 2
-17 14 -19 27 -2 22 -2 23 12 6 7 -10 18 -17 22 -16z m2664 4 c0 -8 -4 -15
-10 -15 -5 0 -10 7 -10 15 0 8 5 15 10 15 6 0 10 -7 10 -15z m2527 9 c-3 -3
-12 -4 -19 -1 -8 3 -5 6 6 6 11 1 17 -2 13 -5z m-3500 -10 c-3 -3 -12 -4 -19
-1 -8 3 -5 6 6 6 11 1 17 -2 13 -5z m1863 -4 c0 -5 -4 -10 -10 -10 -5 0 -10 5
-10 10 0 6 5 10 10 10 6 0 10 -4 10 -10z m-628 -36 c-7 -12 -11 -13 -17 -4 -4
7 -2 16 6 21 18 11 23 4 11 -17z m436 -2 c3 -19 -2 -24 -24 -21 -4 0 -11 -5
-15 -13 -6 -9 -9 -9 -9 -1 0 6 5 15 10 18 8 5 8 11 1 19 -13 15 -3 28 19 24 8
-2 16 -13 18 -26z m-208 8 c0 -5 -7 -10 -15 -10 -8 0 -15 5 -15 10 0 6 7 10
15 10 8 0 15 -4 15 -10z m-2952 -50 c-5 -32 1 -37 19 -19 14 14 53 2 53 -15 0
-7 -9 -21 -19 -30 -16 -14 -23 -15 -41 -6 -23 12 -70 6 -70 -10 0 -5 8 -15 18
-22 12 -9 18 -30 20 -70 2 -50 0 -58 -15 -57 -11 0 -13 3 -5 6 19 7 14 31 -8
38 -18 6 -18 8 -5 21 21 21 19 26 -18 49 -37 24 -42 49 -9 53 14 2 22 10 22
23 0 10 7 19 15 19 8 0 15 6 15 13 0 12 19 37 28 37 2 0 2 -13 0 -30z m3232 9
c0 -5 -4 -9 -10 -9 -5 0 -10 7 -10 16 0 8 5 12 10 9 6 -3 10 -10 10 -16z
m-2577 -20 c7 -26 -2 -79 -13 -79 -10 0 -20 67 -13 86 8 20 20 17 26 -7z
m1807 6 c0 -8 5 -15 11 -15 5 0 7 5 4 10 -14 23 26 20 63 -5 47 -31 60 -55 38
-70 -9 -7 -13 -20 -9 -33 4 -16 1 -22 -11 -22 -9 0 -16 7 -16 15 0 8 -4 15 -9
15 -14 0 -21 -27 -21 -78 0 -26 -4 -53 -8 -60 -13 -20 -53 -8 -79 24 -26 33
-31 53 -7 33 12 -10 17 -10 23 0 6 8 10 2 15 -19 8 -42 30 -34 33 13 2 36 -4
42 -34 38 -16 -2 -18 60 -3 75 8 8 6 15 -5 24 -15 13 -21 51 -8 63 11 12 23 8
23 -8z m218 -7 c-3 -7 -11 -13 -18 -13 -7 0 -15 6 -17 13 -3 7 4 12 17 12 13
0 20 -5 18 -12z m72 2 c0 -5 -9 -10 -20 -10 -11 0 -20 5 -20 10 0 6 9 10 20
10 11 0 20 -4 20 -10z m568 -37 c-4 -20 -18 -26 -37 -14 -18 12 -5 31 20 31
14 0 19 -6 17 -17z m32 -33 c0 -5 -4 -10 -10 -10 -5 0 -10 5 -10 10 0 6 5 10
10 10 6 0 10 -4 10 -10z m-690 -23 c19 -13 41 -22 48 -20 6 3 12 0 12 -6 0
-16 -21 -13 -64 9 -22 10 -43 17 -47 14 -5 -3 -6 2 -3 10 8 21 13 20 54 -7z
m-1894 -14 c-7 -7 -26 7 -26 19 0 6 6 6 15 -2 9 -7 13 -15 11 -17z m2254 13
c14 -2 30 0 36 5 11 9 80 -6 89 -21 3 -5 0 -12 -6 -16 -20 -12 -222 -13 -257
-1 -27 9 -35 9 -42 -3 -8 -12 -10 -12 -10 -1 0 10 -8 12 -32 7 -25 -5 -30 -4
-21 5 7 7 45 13 89 13 54 1 79 6 82 15 3 8 12 10 26 6 11 -3 32 -8 46 -9z
m571 -23 c32 -19 38 -33 13 -33 -22 0 -51 17 -58 35 -7 20 9 19 45 -2z m1219
-3 c0 -5 -2 -10 -4 -10 -3 0 -8 5 -11 10 -3 6 -1 10 4 10 6 0 11 -4 11 -10z
m-4015 -10 c3 -5 1 -10 -4 -10 -6 0 -11 5 -11 10 0 6 2 10 4 10 3 0 8 -4 11
-10z m2745 -4 c0 -2 3 -11 6 -20 9 -23 -13 -20 -26 4 -9 16 -8 20 5 20 8 0 15
-2 15 -4z m-176 -75 c-9 -10 -36 28 -29 39 6 9 12 6 21 -11 7 -13 10 -26 8
-28z m-2471 12 c4 -2 7 -11 7 -19 0 -10 12 -14 39 -14 22 0 46 -7 55 -15 8 -8
21 -15 30 -15 25 0 29 -20 9 -42 -13 -15 -15 -22 -5 -25 6 -3 12 -12 12 -21 0
-12 7 -9 29 12 18 17 36 26 45 23 23 -9 20 -20 -11 -47 -24 -21 -26 -25 -10
-28 28 -6 47 5 41 23 -11 27 14 16 33 -15 9 -16 23 -30 29 -30 6 0 17 -6 24
-14 6 -8 18 -12 25 -10 23 9 5 -38 -24 -63 -14 -13 -21 -23 -15 -23 6 0 19 9
28 19 16 18 56 25 56 11 0 -3 -16 -21 -35 -40 l-34 -33 -85 84 c-163 162 -172
169 -206 163 -34 -7 -60 9 -60 37 0 13 -7 19 -24 19 -14 0 -28 -4 -31 -10 -8
-12 -42 -13 -49 -1 -3 5 8 27 25 50 27 39 33 42 62 35 18 -3 35 -8 40 -11z
m3931 -6 c-2 -7 -14 -18 -25 -25 -21 -13 -21 -13 -3 12 20 27 37 35 28 13z
m-1230 -22 c10 -8 22 -12 27 -10 8 6 69 -52 69 -66 0 -5 -7 -9 -15 -9 -8 0
-15 5 -15 10 0 6 -5 10 -11 10 -6 0 -9 -7 -5 -15 3 -9 -3 -19 -14 -25 -15 -8
-20 -8 -20 1 0 20 -31 48 -46 42 -15 -5 -20 31 -8 61 7 19 13 20 38 1z m-908
-24 c11 -9 19 -22 16 -29 -2 -6 1 -12 7 -12 6 0 11 5 11 11 0 5 4 7 10 4 6 -4
5 -11 -2 -19 -14 -14 -34 -10 -102 19 -36 15 -37 17 -21 34 18 21 47 18 81 -8z
m-586 11 c0 -13 -12 -22 -22 -16 -10 6 -1 24 13 24 5 0 9 -4 9 -8z m270 -13
c0 -5 -4 -9 -10 -9 -5 0 -10 7 -10 16 0 8 5 12 10 9 6 -3 10 -10 10 -16z
m1130 -30 c17 -39 6 -48 -24 -20 -14 14 -22 30 -19 41 7 25 29 15 43 -21z
m-2120 11 c8 -5 11 -12 7 -16 -4 -4 -15 0 -24 9 -18 18 -8 23 17 7z m2536 -15
c8 -7 12 -24 10 -37 -3 -13 -5 -26 -5 -30 -1 -5 -10 -8 -21 -8 -14 0 -20 7
-20 21 0 12 -8 23 -19 26 -11 3 -21 13 -24 22 -3 14 3 18 30 19 19 1 41 -5 49
-13z m-1151 -5 c3 -5 1 -10 -4 -10 -6 0 -11 5 -11 10 0 6 2 10 4 10 3 0 8 -4
11 -10z m2170 -25 c-30 -24 -85 -34 -85 -15 0 6 12 10 26 10 14 0 37 9 51 20
37 29 43 14 8 -15z m-2085 -31 c0 -7 10 -20 22 -28 12 -9 19 -19 15 -22 -4 -4
-21 9 -39 28 -18 19 -41 38 -50 41 -10 4 -18 11 -18 17 0 5 16 2 35 -7 19 -9
35 -22 35 -29z m-1168 19 c19 -17 24 -43 9 -43 -5 0 -18 -3 -28 -7 -15 -6 -16
-4 -5 9 10 13 9 16 -8 21 -24 6 -27 37 -3 37 9 0 25 -7 35 -17z m1288 7 c0 -5
-4 -10 -10 -10 -5 0 -10 5 -10 10 0 6 5 10 10 10 6 0 10 -4 10 -10z m433 -21
c-5 -19 -7 -19 -15 -5 -10 18 -2 39 12 31 4 -3 6 -15 3 -26z m-1458 1 c4 -6
11 -8 16 -5 15 10 22 -24 9 -40 -10 -12 -9 -15 4 -15 9 0 16 7 16 15 0 18 40
29 69 20 12 -3 33 -9 48 -11 15 -3 31 -10 35 -17 9 -14 -9 -37 -31 -37 -14 0
-14 -2 -1 -10 10 -6 11 -12 5 -18 -6 -6 -33 -3 -70 9 -33 11 -77 24 -98 31
-33 10 -37 15 -32 35 4 16 1 23 -10 23 -16 0 -20 12 -8 23 10 11 41 8 48 -3z
m715 0 c0 -5 -4 -10 -10 -10 -5 0 -10 5 -10 10 0 6 5 10 10 10 6 0 10 -4 10
-10z m-1134 -53 c1 -49 -15 -67 -37 -41 -20 24 -20 66 -1 80 27 21 37 11 38
-39z m1454 2 c3 -4 16 -10 30 -14 31 -9 71 -45 64 -56 -3 -5 2 -9 11 -9 9 0
13 5 10 10 -3 6 -2 10 4 10 5 0 11 -6 14 -12 3 -10 7 -10 19 0 13 11 21 9 44
-12 23 -19 26 -27 17 -37 -10 -10 -20 -9 -50 4 -21 8 -51 18 -66 22 -19 4 -27
11 -25 23 2 12 -3 16 -19 15 -13 -2 -23 3 -23 10 0 6 -14 20 -31 30 -25 14
-30 14 -26 3 9 -23 -24 -8 -55 26 -16 16 -28 31 -28 33 0 5 104 -39 110 -46z
m558 14 c2 -14 -4 -22 -20 -26 -30 -8 -34 -2 -19 29 13 29 34 28 39 -3z m853
-10 c-8 -15 -10 -15 -11 -2 0 17 10 32 18 25 2 -3 -1 -13 -7 -23z m-2021 -18
c-7 -8 -17 -15 -23 -15 -5 0 -2 9 8 20 21 23 35 19 15 -5z m-740 -4 c0 -6 -5
-13 -10 -16 -6 -4 -8 -11 -5 -16 4 -5 2 -9 -3 -9 -17 0 -21 12 -9 31 13 20 27
25 27 10z m2083 2 c-7 -2 -19 -2 -25 0 -7 3 -2 5 12 5 14 0 19 -2 13 -5z m458
-3 c10 0 19 -6 19 -14 0 -17 -25 -29 -67 -34 -7 -1 -13 -6 -13 -10 0 -4 16 -6
35 -4 21 3 35 0 35 -7 0 -6 -8 -11 -17 -11 -17 -1 -17 -1 0 -14 23 -18 22 -26
-5 -27 -21 0 -21 -1 -4 -8 14 -5 16 -10 8 -15 -20 -12 -3 -27 24 -20 45 11 25
-39 -27 -66 -15 -8 -19 -7 -19 5 0 8 7 15 16 15 8 0 12 5 9 10 -4 6 -10 8 -15
5 -5 -3 -11 4 -15 15 -11 34 -28 23 -21 -14 5 -23 2 -37 -8 -45 -30 -25 -39
-2 -32 83 13 154 20 172 64 160 8 -2 22 -4 33 -4z m-304 -6 c-3 -3 -12 -4 -19
-1 -8 3 -5 6 6 6 11 1 17 -2 13 -5z m-7869 -22 c6 -18 -15 -14 -22 4 -4 10 -1
14 6 12 6 -2 14 -10 16 -16z m4772 8 c0 -5 -4 -10 -10 -10 -5 0 -10 5 -10 10
0 6 5 10 10 10 6 0 10 -4 10 -10z m2980 -24 c0 -7 -6 -19 -14 -25 -12 -10 -17
-8 -25 8 -9 16 -8 20 7 24 29 8 32 7 32 -7z m470 4 c0 -5 -4 -10 -10 -10 -5 0
-10 5 -10 10 0 6 5 10 10 10 6 0 10 -4 10 -10z m-2825 -20 c3 -5 20 -9 38 -7
23 1 32 -3 35 -15 2 -11 -3 -18 -12 -18 -12 0 -16 -10 -16 -35 0 -42 -16 -46
-31 -7 -11 26 -29 69 -37 85 -6 11 16 9 23 -3z m146 -51 c10 -10 19 -26 19
-36 0 -20 -2 -18 -35 30 -14 22 -22 44 -18 50 5 8 9 6 11 -6 2 -11 12 -27 23
-38z m1954 41 c3 -5 1 -10 -4 -10 -6 0 -11 5 -11 10 0 6 2 10 4 10 3 0 8 -4
11 -10z m32 -12 c-3 -8 -6 -5 -6 6 -1 11 2 17 5 13 3 -3 4 -12 1 -19z m143 7
c0 -8 -4 -15 -9 -15 -13 0 -22 16 -14 24 11 11 23 6 23 -9z m-1698 -10 c0 -5
-5 -11 -11 -13 -6 -2 -11 4 -11 13 0 9 5 15 11 13 6 -2 11 -8 11 -13z m2943 5
c3 -5 -3 -10 -15 -10 -12 0 -18 5 -15 10 3 6 10 10 15 10 5 0 12 -4 15 -10z
m-8965 -25 c0 -8 -4 -15 -10 -15 -5 0 -10 7 -10 15 0 8 5 15 10 15 6 0 10 -7
10 -15z m5903 -12 c20 -40 31 -103 17 -103 -6 0 -13 8 -16 18 -3 9 -12 31 -21
49 -14 28 -13 63 1 63 3 0 12 -12 19 -27z m397 18 c0 -12 -28 -22 -34 -12 -3
5 -3 11 1 15 9 9 33 7 33 -3z m984 -12 c-3 -5 -10 -7 -15 -3 -5 3 -7 10 -3 15
3 5 10 7 15 3 5 -3 7 -10 3 -15z m-713 -2 c-1 -12 -15 -9 -19 4 -3 6 1 10 8 8
6 -3 11 -8 11 -12z m1538 -13 c-15 -18 -39 -18 -39 -1 0 20 9 25 31 20 15 -4
17 -8 8 -19z m861 7 c0 -15 -16 -22 -35 -15 -13 5 -14 8 -3 15 18 12 38 11 38
0z m-2611 -51 c-6 -19 -10 -63 -10 -97 1 -68 -2 -73 -61 -83 -33 -6 -40 -4
-49 13 -6 10 -9 32 -6 46 4 18 -1 38 -14 57 -28 43 -25 72 9 80 15 4 50 12 77
19 28 7 53 10 57 6 4 -4 3 -22 -3 -41z m2541 40 c0 -5 -4 -10 -10 -10 -5 0
-10 5 -10 10 0 6 5 10 10 10 6 0 10 -4 10 -10z m-8837 -11 c19 -8 22 -16 19
-40 -5 -37 -23 -37 -45 0 -29 49 -21 62 26 40z m852 -28 c-1 -15 -5 -33 -9
-40 -4 -7 -5 -18 -2 -26 3 -8 1 -17 -5 -21 -5 -3 -7 -14 -4 -25 9 -29 -8 -23
-33 11 -23 31 -56 40 -65 18 -4 -10 -8 -10 -15 1 -14 19 -26 8 -47 -44 -11
-25 -23 -45 -28 -45 -11 0 -2 139 10 150 15 15 87 30 96 21 5 -5 24 1 44 14
41 29 61 24 58 -14z m2615 3 c0 -24 -4 -34 -12 -32 -24 8 -22 68 2 68 5 0 10
-16 10 -36z m5025 17 c-3 -6 -11 -8 -17 -5 -6 4 -5 9 3 15 16 10 23 4 14 -10z
m-165 -5 c0 -3 -4 -8 -10 -11 -5 -3 -10 -1 -10 4 0 6 5 11 10 11 6 0 10 -2 10
-4z m-2942 -34 c2 -12 -1 -22 -7 -22 -6 0 -11 4 -11 9 0 5 -3 17 -7 27 -4 12
-2 15 8 12 8 -2 15 -14 17 -26z m2911 9 c9 -16 7 -20 -14 -23 -15 -3 -26 0
-30 9 -12 34 27 46 44 14z m-8219 -1 c0 -5 -5 -10 -11 -10 -5 0 -7 5 -4 10 3
6 8 10 11 10 2 0 4 -4 4 -10z m8385 -10 c-3 -5 -12 -10 -18 -10 -7 0 -6 4 3
10 19 12 23 12 15 0z m449 -5 c-4 -8 -1 -21 4 -28 9 -10 3 -13 -28 -12 l-38 0
31 27 c38 32 38 32 31 13z m-159 -25 c3 -6 -1 -7 -9 -4 -18 7 -21 14 -7 14 6
0 13 -4 16 -10z m-2730 -10 c3 -5 1 -10 -4 -10 -6 0 -11 5 -11 10 0 6 2 10 4
10 3 0 8 -4 11 -10z m-100 -10 c3 -5 2 -10 -4 -10 -5 0 -13 5 -16 10 -3 6 -2
10 4 10 5 0 13 -4 16 -10z m2472 -20 c-4 -16 -2 -32 3 -35 13 -8 -26 -45 -47
-45 -15 0 -15 1 -1 13 14 10 32 57 23 57 -2 0 -20 -9 -39 -21 -37 -21 -48 -49
-21 -49 8 0 15 -4 15 -9 0 -5 9 -13 20 -16 17 -5 18 -10 9 -27 -9 -18 -8 -19
10 -13 13 4 27 1 37 -9 20 -21 9 -39 -16 -26 -25 13 -60 13 -60 -1 0 -8 -4 -8
-15 1 -8 6 -18 9 -24 6 -5 -3 -22 -1 -38 5 -27 11 -27 11 -7 19 28 11 45 36
18 27 -19 -7 -19 -7 0 8 27 20 15 28 -27 17 -21 -6 -40 -6 -50 0 -21 11 -22
-1 -1 -30 8 -12 10 -22 5 -22 -6 0 -11 5 -11 10 0 6 -7 10 -15 10 -8 0 -15 -4
-15 -10 0 -5 -11 -10 -25 -10 -14 0 -24 -3 -24 -7 4 -22 -3 -25 -15 -7 -11 14
-12 22 -3 33 7 8 12 28 12 45 0 30 1 30 54 31 35 0 55 -4 58 -12 3 -7 9 -13
14 -13 4 0 6 7 3 15 -7 17 11 21 21 5 10 -17 32 -11 38 10 3 11 13 20 22 20
12 0 15 5 11 16 -5 12 -2 15 9 10 9 -3 25 3 37 14 30 28 41 25 35 -10z m63 -1
c0 -5 -4 -9 -10 -9 -5 0 -10 7 -10 16 0 8 5 12 10 9 6 -3 10 -10 10 -16z
m-252 -17 c2 -7 -3 -10 -11 -6 -8 3 -18 1 -22 -5 -8 -14 -52 -14 -60 -1 -4 6
-10 8 -14 6 -4 -3 -8 1 -8 10 0 9 7 12 18 9 10 -4 26 -2 36 3 19 11 55 1 61
-16z m-7420 -5 c17 -13 16 -68 -1 -61 -8 3 -18 -6 -25 -21 -7 -14 -17 -23 -22
-20 -6 3 -13 -1 -16 -10 -5 -12 -14 -14 -40 -9 -43 8 -44 -6 -3 -40 33 -28 50
-32 79 -16 19 10 50 4 50 -11 0 -19 -67 -19 -119 0 -69 26 -76 33 -60 62 7 13
12 30 11 37 -4 18 29 15 43 -5 13 -17 40 -9 29 9 -4 7 -2 8 5 4 21 -13 24 25
3 53 l-20 27 22 10 c22 10 42 8 64 -9z m2696 -9 c5 -9 8 -20 4 -23 -8 -8 -88
13 -88 24 0 27 66 26 84 -1z m2494 0 c-2 -12 -8 -23 -14 -25 -7 -2 -10 6 -7
22 6 30 26 34 21 3z m-1867 -19 c23 -44 -7 -106 -68 -138 -34 -17 -34 -14 3
23 34 34 44 75 25 105 -14 21 -53 -8 -80 -59 -26 -49 -27 -77 -3 -83 9 -3 2
-5 -17 -6 l-33 -1 6 46 c7 58 26 88 74 113 49 26 79 26 93 0z m-775 -24 c2
-10 10 -22 18 -27 16 -9 23 -48 8 -48 -15 0 -32 24 -32 46 0 13 -4 26 -10 29
-14 9 -13 28 2 23 6 -2 12 -13 14 -23z m2434 15 c0 -5 -2 -10 -4 -10 -3 0 -8
5 -11 10 -3 6 -1 10 4 10 6 0 11 -4 11 -10z m2700 6 c0 -3 -4 -8 -10 -11 -5
-3 -10 -1 -10 4 0 6 5 11 10 11 6 0 10 -2 10 -4z m82 -28 c-15 -15 -26 -4 -18
18 5 13 9 15 18 6 9 -9 9 -15 0 -24z m-5232 -55 c0 -7 -4 -13 -10 -13 -5 0
-10 8 -10 18 0 9 -9 23 -20 30 -12 7 -18 17 -14 23 7 11 54 -39 54 -58z m2530
47 c0 -5 -4 -10 -9 -10 -6 0 -13 5 -16 10 -3 6 1 10 9 10 9 0 16 -4 16 -10z
m2780 -5 c-14 -17 -30 -20 -30 -6 0 5 8 12 18 14 9 3 19 5 21 6 2 0 -2 -6 -9
-14z m-7788 -82 c-5 -36 -9 -39 -34 -19 -16 12 -16 15 5 56 20 41 22 43 27 20
3 -13 4 -39 2 -57z m5058 55 c0 -19 -2 -20 -10 -8 -13 19 -13 30 0 30 6 0 10
-10 10 -22z m3027 16 c12 -3 24 -12 27 -20 4 -10 0 -11 -19 -4 -14 5 -26 6
-26 2 -1 -4 -2 -11 -4 -17 -1 -5 -3 -18 -3 -27 -2 -22 -22 -24 -22 -3 0 11
-11 15 -40 15 -34 0 -39 2 -28 14 9 9 15 10 20 3 4 -7 16 -1 34 16 29 29 29
29 61 21z m-2997 -20 c0 -8 -5 -12 -10 -9 -6 4 -8 11 -5 16 9 14 15 11 15 -7z
m-50 -1 c-1 -15 -27 -43 -33 -36 -15 15 -6 43 13 43 11 0 20 -3 20 -7z m2763
-22 c-28 -24 -29 -31 -3 -31 11 0 20 -4 20 -10 0 -13 -31 -13 -65 0 -20 8 -27
7 -31 -4 -3 -8 -12 -12 -21 -9 -8 3 -19 0 -24 -8 -6 -10 -9 -10 -9 -1 0 6 10
22 23 35 12 12 21 26 19 32 -2 5 6 1 17 -9 19 -18 22 -18 34 -4 10 14 27 22
57 27 3 0 -5 -8 -17 -18z m-125 -11 c-9 -13 -16 -16 -23 -9 -7 7 -5 13 5 19
24 15 31 11 18 -10z m212 12 c0 -13 -12 -22 -22 -16 -10 6 -1 24 13 24 5 0 9
-4 9 -8z m-511 -26 c9 -11 8 -15 -4 -20 -8 -3 -20 -17 -27 -31 -13 -29 -26
-32 -35 -9 -3 9 3 23 16 35 11 11 21 24 21 29 0 14 16 12 29 -4z m-3938 -19
c-1 -12 -15 -9 -19 4 -3 6 1 10 8 8 6 -3 11 -8 11 -12z m4205 -14 c-10 -10
-19 5 -10 18 6 11 8 11 12 0 2 -7 1 -15 -2 -18z m-346 7 c0 -5 -5 -10 -11 -10
-5 0 -7 5 -4 10 3 6 8 10 11 10 2 0 4 -4 4 -10z m597 -17 c0 -15 -5 -36 -13
-47 -8 -11 -14 -16 -14 -10 0 5 5 15 10 20 7 7 8 19 1 37 -8 20 -7 27 2 27 6
0 13 -12 14 -27z m-417 7 c0 -5 -5 -10 -11 -10 -5 0 -7 5 -4 10 3 6 8 10 11
10 2 0 4 -4 4 -10z m73 -11 c4 -14 2 -19 -8 -16 -7 3 -18 0 -24 -6 -18 -18
-13 1 7 22 9 11 18 20 18 20 1 1 4 -8 7 -20z m307 7 c0 -3 -4 -8 -10 -11 -5
-3 -10 -1 -10 4 0 6 5 11 10 11 6 0 10 -2 10 -4z m-219 -52 c5 -6 10 -24 11
-40 1 -16 6 -35 11 -41 11 -15 31 -18 22 -3 -3 6 -1 10 5 10 7 0 10 7 7 15 -8
19 10 30 27 16 10 -8 17 -7 26 4 7 8 17 12 22 9 5 -3 -1 -17 -13 -30 -18 -19
-19 -24 -6 -24 9 0 19 5 22 10 9 15 25 12 25 -5 0 -8 5 -15 10 -15 6 0 10 7
10 15 0 8 9 15 19 15 15 0 18 5 13 22 -4 17 -2 20 13 14 12 -4 22 0 32 14 9
12 25 20 41 19 27 0 27 0 5 -11 -13 -6 -23 -14 -23 -18 0 -12 30 -21 42 -13 7
3 8 1 4 -5 -4 -7 -14 -12 -22 -12 -8 0 -14 -3 -15 -7 -6 -40 -5 -73 1 -73 5 0
10 6 13 13 2 6 8 9 12 5 5 -4 -4 -17 -19 -29 -22 -17 -25 -24 -15 -36 11 -12
9 -13 -13 -8 -17 4 -35 1 -51 -9 -22 -15 -28 -15 -72 -1 -26 9 -49 15 -51 13
-2 -3 -5 -15 -6 -29 -3 -21 1 -24 25 -22 17 1 27 -3 27 -11 0 -8 9 -16 21 -19
12 -3 19 -11 17 -18 -6 -19 -28 -23 -28 -5 0 9 -7 16 -15 16 -11 0 -12 -5 -6
-22 5 -13 16 -22 26 -21 9 0 13 -2 10 -5 -4 -4 -16 -8 -28 -9 -12 -1 -37 -5
-56 -9 -32 -6 -34 -6 -27 19 4 18 1 27 -10 31 -23 9 -36 7 -29 -4 3 -5 2 -17
-3 -25 -7 -14 -13 -12 -37 11 -28 26 -28 28 -10 34 11 4 24 5 29 2 4 -2 12 1
16 9 7 10 11 10 24 0 10 -8 16 -9 16 -3 0 6 -9 14 -20 17 -23 7 -27 35 -5 35
8 0 15 -6 15 -14 0 -8 6 -16 14 -19 8 -3 13 1 12 11 -2 34 -15 39 -80 33 -5
-1 -3 -8 4 -16 9 -11 10 -19 2 -27 -14 -14 -33 -1 -25 17 3 8 1 15 -5 15 -6 0
-12 -6 -14 -12 -3 -8 -9 -4 -17 10 -13 24 -7 42 13 42 8 0 16 9 19 20 6 25 0
25 -26 3 -20 -17 -20 -17 -14 0 4 10 7 23 7 28 0 6 12 14 28 20 21 7 27 16 28
40 2 28 0 30 -24 24 -14 -3 -33 -16 -41 -27 l-14 -21 -9 22 c-10 27 -1 44 18
37 8 -3 14 0 14 5 0 7 -11 9 -25 7 -30 -6 -33 7 -5 22 16 8 22 7 32 -9 6 -11
18 -17 27 -13 12 4 11 7 -4 12 -17 6 -16 8 6 29 22 21 24 21 28 4 2 -10 7 -23
12 -29z m-2638 0 c-4 -10 -9 -12 -15 -6 -12 12 -1 35 12 27 5 -3 6 -13 3 -21z
m2241 17 c3 -5 -1 -11 -9 -15 -15 -6 -29 7 -18 18 9 9 21 8 27 -3z m185 -17
c-45 -16 -52 -17 -47 -1 5 13 57 27 72 18 6 -2 -6 -10 -25 -17z m394 -5 c-12
-13 -23 -17 -27 -11 -3 6 3 13 14 17 11 3 20 11 20 17 0 6 3 8 7 4 4 -3 -2
-16 -14 -27z m253 5 c-3 -9 -6 -21 -6 -27 0 -8 -3 -8 -10 -1 -12 12 -3 44 12
44 6 0 7 -7 4 -16z m-736 -4 c13 -9 13 -11 0 -19 -17 -12 -30 -5 -30 15 0 16
9 18 30 4z m152 4 c4 -3 2 -18 -2 -34 -7 -23 -4 -31 12 -42 12 -8 17 -19 13
-30 -9 -23 -33 -31 -31 -10 0 9 -7 18 -16 20 -11 2 -18 -3 -18 -12 0 -9 5 -16
10 -16 6 0 10 -7 10 -15 0 -18 -5 -19 -32 -4 -16 9 -19 8 -16 -3 3 -7 14 -14
26 -16 30 -5 28 -17 -4 -18 -27 -2 -41 -10 -31 -20 3 -3 17 -7 31 -8 14 0 26
-6 26 -13 0 -9 -10 -9 -40 2 -31 11 -42 11 -52 2 -14 -13 -82 -17 -94 -4 -4 4
1 7 10 7 10 0 27 11 38 25 17 22 26 25 55 20 23 -3 32 -2 28 6 -4 6 -26 9 -49
7 -22 -1 -40 1 -38 5 2 5 -7 17 -20 28 l-23 20 25 19 c14 11 30 20 36 20 17 0
26 -43 11 -52 -7 -4 -7 -8 -2 -8 6 0 17 5 25 10 12 8 13 13 2 30 -10 17 -9 22
8 32 11 7 20 18 20 25 0 13 12 17 37 14 6 -1 14 3 18 9 7 11 19 13 27 4z
m-4449 -19 c42 -6 54 -17 28 -27 -19 -7 -21 -11 -11 -23 7 -8 18 -15 25 -15
13 0 29 -29 21 -37 -8 -8 -66 40 -66 54 0 7 -11 18 -24 25 -30 13 -47 44 -19
33 10 -4 30 -8 46 -10z m357 8 c0 -5 -5 -15 -10 -23 -8 -12 -10 -11 -10 8 0
12 5 22 10 22 6 0 10 -3 10 -7z m2566 -20 c-7 -7 -26 7 -26 19 0 6 6 6 15 -2
9 -7 13 -15 11 -17z m-82 -29 c5 -15 2 -24 -10 -28 -22 -8 -23 -7 -17 32 6 35
16 33 27 -4z m1390 27 c3 -5 0 -11 -8 -14 -15 -6 -26 1 -26 15 0 11 27 10 34
-1z m766 -1 c0 -5 -4 -10 -10 -10 -5 0 -10 5 -10 10 0 6 5 10 10 10 6 0 10 -4
10 -10z m-55 -50 c4 -6 -5 -10 -20 -10 -15 0 -24 4 -20 10 3 6 12 10 20 10 8
0 17 -4 20 -10z m-3038 -42 c-3 -8 -6 -5 -6 6 -1 11 2 17 5 13 3 -3 4 -12 1
-19z m-1440 -43 c65 -61 51 -65 -17 -4 -30 27 -49 49 -42 49 7 0 34 -20 59
-45z m-1614 -59 c8 -19 -39 -49 -77 -50 -17 -1 -34 -5 -38 -10 -3 -5 -48 -26
-100 -47 -67 -27 -98 -34 -110 -28 -28 15 -22 27 24 50 41 21 139 58 168 63 8
2 26 8 40 13 47 19 55 21 71 22 9 1 19 -5 22 -13z m-570 -35 c22 -11 33 -22
27 -26 -6 -4 -9 -14 -6 -22 4 -9 -1 -17 -14 -20 -11 -3 -20 -13 -20 -23 0 -10
-7 -23 -15 -30 -8 -7 -15 -21 -15 -32 0 -15 -5 -18 -22 -13 -18 5 -20 4 -8 -4
10 -7 11 -11 2 -11 -8 0 -10 -8 -6 -26 5 -20 3 -25 -7 -22 -8 2 -15 17 -17 31
-2 15 -7 25 -12 22 -5 -3 -6 -13 -3 -22 4 -11 2 -14 -8 -11 -8 3 -14 14 -14
25 0 12 -3 25 -7 29 -5 4 -8 16 -8 27 0 11 -7 28 -15 37 -15 16 -11 20 37 51
29 19 61 39 73 46 11 6 20 11 20 12 1 1 18 -8 38 -18z m6529 -3 c-9 -9 -15 -9
-24 0 -9 9 -7 12 12 12 19 0 21 -3 12 -12z m-539 -14 c-4 -10 1 -20 11 -26 20
-11 12 -30 -9 -21 -8 3 -15 0 -15 -6 0 -6 -7 -11 -15 -11 -8 0 -15 5 -15 11 0
6 -9 8 -20 4 -12 -4 -20 -2 -20 5 0 16 32 47 55 53 33 8 35 8 28 -9z m170 9
c-25 -9 -12 -19 17 -15 33 5 42 -14 13 -25 -10 -4 -30 -15 -45 -26 -27 -20
-58 -18 -58 4 0 6 6 9 14 6 23 -9 42 21 29 43 -10 15 -8 17 15 17 15 0 21 -2
15 -4z m-113 -12 c0 -6 -4 -13 -10 -16 -5 -3 -10 1 -10 9 0 9 5 16 10 16 6 0
10 -4 10 -9z m202 -13 c-18 -18 -14 -28 11 -28 12 0 17 -4 11 -8 -6 -4 -13
-15 -17 -24 -3 -10 -11 -18 -16 -18 -6 0 -8 7 -5 15 10 24 -5 36 -28 24 -17
-9 -19 -8 -11 6 5 9 21 22 34 30 31 17 36 18 21 3z m-5588 -14 c13 -33 3 -41
-91 -68 -54 -16 -110 -35 -125 -43 -23 -11 -29 -11 -43 3 -9 9 -15 23 -13 31
3 15 70 43 178 73 82 23 87 23 94 4z m5417 -41 c11 -13 11 -15 1 -9 -8 5 -21
1 -33 -10 -23 -21 -25 -8 -2 18 20 22 17 22 34 1z m684 -12 c-6 -5 -25 10 -25
20 0 5 6 4 14 -3 8 -7 12 -15 11 -17z m-6535 -1 c8 -16 6 -22 -14 -35 -14 -9
-33 -15 -43 -13 -29 5 -27 35 4 52 37 20 40 20 53 -4z m6187 -1 c21 -8 24 -12
13 -19 -9 -5 -19 -5 -26 1 -8 7 -14 6 -19 -1 -3 -5 -15 -10 -25 -10 -10 0 -20
-6 -23 -12 -2 -8 -8 -9 -13 -4 -5 5 -4 11 4 13 6 3 12 13 12 24 0 22 32 25 77
8z m-279 -17 c2 -7 -2 -10 -12 -6 -9 3 -16 11 -16 16 0 13 23 5 28 -10z m357
8 c8 -13 -15 -13 -35 0 -12 8 -11 10 7 10 12 0 25 -4 28 -10z m-6104 -74 c-7
-8 -10 -20 -6 -26 8 -14 -18 -13 -32 1 -8 8 -19 7 -40 -4 -15 -8 -59 -27 -96
-42 -62 -25 -70 -26 -84 -12 -8 8 -12 20 -9 26 4 6 51 31 104 56 53 25 104 50
112 54 10 6 22 2 39 -14 20 -20 22 -26 12 -39z m6073 58 c9 -3 16 -10 16 -16
0 -5 -5 -6 -11 -2 -6 3 -15 0 -20 -7 -13 -20 -11 -29 6 -29 10 0 14 -9 13 -27
-3 -31 -28 -67 -28 -40 0 8 -16 24 -35 36 -36 21 -47 51 -20 51 8 0 15 7 15
16 0 8 4 13 8 10 4 -2 14 -1 22 5 18 11 15 10 34 3z m-354 -14 c0 -5 -2 -10
-4 -10 -3 0 -8 5 -11 10 -3 6 -1 10 4 10 6 0 11 -4 11 -10z m92 -15 c7 -32 -9
-43 -27 -19 -9 13 -10 23 -3 31 16 20 25 16 30 -12z m-157 -14 c28 -15 32 -21
22 -30 -11 -8 -18 -6 -32 9 -10 11 -24 20 -32 20 -7 0 -13 5 -13 10 0 15 16
12 55 -9z m200 9 c3 -5 1 -18 -5 -29 -6 -13 -7 -22 0 -26 10 -6 -9 -45 -22
-45 -16 0 -8 63 10 76 10 8 12 13 5 14 -7 0 -13 5 -13 10 0 13 17 13 25 0z
m-265 -10 c0 -5 -7 -10 -15 -10 -8 0 -15 5 -15 10 0 6 7 10 15 10 8 0 15 -4
15 -10z m155 1 c3 -5 1 -12 -5 -16 -5 -3 -10 1 -10 9 0 18 6 21 15 7z m358
-11 c3 -11 1 -18 -4 -14 -5 3 -9 12 -9 20 0 20 7 17 13 -6z m-563 -10 c0 -5
-4 -10 -10 -10 -5 0 -10 5 -10 10 0 6 5 10 10 10 6 0 10 -4 10 -10z m-3770
-10 c23 -15 6 -21 -46 -18 -46 3 -47 4 -24 15 31 15 51 15 70 3z m4198 -16
c-16 -16 -68 -29 -68 -18 0 18 16 32 40 36 34 5 45 -2 28 -18z m237 6 c-3 -5
-10 -10 -16 -10 -5 0 -9 5 -9 10 0 6 7 10 16 10 8 0 12 -4 9 -10z m-674 -33
c-10 -9 -11 -8 -5 6 3 10 9 15 12 12 3 -3 0 -11 -7 -18z m129 13 c0 -5 -4 -10
-9 -10 -6 0 -13 5 -16 10 -3 6 1 10 9 10 9 0 16 -4 16 -10z m-850 -20 c0 -5
-12 -10 -26 -10 -14 0 -23 4 -19 10 3 6 15 10 26 10 10 0 19 -4 19 -10z m1180
-6 c0 -8 -5 -12 -10 -9 -6 4 -8 11 -5 16 9 14 15 11 15 -7z m-6450 -24 c0 -5
-5 -10 -11 -10 -5 0 -7 5 -4 10 3 6 8 10 11 10 2 0 4 -4 4 -10z m6110 -10 c0
-5 -2 -10 -4 -10 -3 0 -8 5 -11 10 -3 6 -1 10 4 10 6 0 11 -4 11 -10z m-6002
-20 c5 -13 3 -13 -11 -2 -9 8 -21 11 -27 7 -5 -3 -10 -1 -10 5 0 17 43 8 48
-10z m6248 -17 c-8 -8 -36 10 -36 25 0 13 3 12 20 -3 11 -10 18 -20 16 -22z
m-216 23 c0 -3 -4 -8 -10 -11 -5 -3 -10 -1 -10 4 0 6 5 11 10 11 6 0 10 -2 10
-4z m460 -6 c0 -5 -4 -10 -10 -10 -5 0 -10 5 -10 10 0 6 5 10 10 10 6 0 10 -4
10 -10z m-127 -12 c-2 -5 -5 -8 -8 -8 -3 0 -14 0 -25 0 -11 0 -20 4 -20 8 0 4
12 8 28 7 15 0 26 -3 25 -7z m310 -5 c3 -5 -8 -8 -24 -9 -15 -1 -26 3 -23 7 6
11 41 12 47 2z m-885 -29 c2 -10 9 -23 16 -29 15 -12 29 -75 17 -75 -18 0 -41
12 -41 22 0 5 5 6 11 2 7 -4 9 1 7 12 -2 11 -10 18 -16 17 -7 -2 -12 8 -12 21
0 13 -3 32 -7 42 -4 12 -2 15 8 12 8 -3 16 -13 17 -24z m-5755 1 c9 -21 -9
-28 -34 -14 -17 9 -19 13 -8 20 21 13 36 11 42 -6z m6658 -19 c-6 -7 -8 -16
-4 -20 4 -4 -4 -3 -17 2 -32 12 -36 30 -8 34 31 5 41 -1 29 -16z m-347 -1 c-4
-8 -8 -15 -10 -15 -2 0 -4 7 -4 15 0 8 4 15 10 15 5 0 7 -7 4 -15z m-6214 -5
c0 -5 -5 -10 -11 -10 -5 0 -7 5 -4 10 3 6 8 10 11 10 2 0 4 -4 4 -10z m6093
-15 c4 -8 2 -17 -3 -20 -6 -4 -10 -4 -10 -1 0 2 -3 11 -6 20 -3 9 -2 16 4 16
5 0 12 -7 15 -15z m52 5 c3 -5 -1 -10 -9 -10 -9 0 -16 5 -16 10 0 6 4 10 9 10
6 0 13 -4 16 -10z m170 -10 c3 -5 -1 -10 -9 -10 -9 0 -16 5 -16 10 0 6 4 10 9
10 6 0 13 -4 16 -10z m-8825 -4 c0 -3 -4 -8 -10 -11 -5 -3 -10 -1 -10 4 0 6 5
11 10 11 6 0 10 -2 10 -4z m2465 -6 c-3 -5 -12 -10 -18 -10 -7 0 -6 4 3 10 19
12 23 12 15 0z m6305 -10 c0 -5 -12 -12 -27 -16 -16 -3 -34 -7 -40 -10 -7 -2
-13 4 -13 12 0 12 7 15 25 12 14 -3 28 -1 31 3 7 12 24 11 24 -1z m270 -5 c-7
-8 -18 -15 -24 -15 -6 0 -2 7 8 15 25 19 32 19 16 0z m-413 -37 c-7 -4 -20 -8
-31 -8 -16 0 -15 2 5 19 17 13 26 16 31 8 4 -6 2 -15 -5 -19z m443 18 c0 -2
-7 -7 -16 -10 -8 -3 -12 -2 -9 4 6 10 25 14 25 6z m-380 -26 c0 -5 -2 -10 -4
-10 -3 0 -8 5 -11 10 -3 6 -1 10 4 10 6 0 11 -4 11 -10z"/>
<path d="M12070 3121 c0 -6 5 -13 10 -16 6 -3 10 1 10 9 0 9 -4 16 -10 16 -5
0 -10 -4 -10 -9z"/>
<path d="M3798 2373 c7 -3 16 -2 19 1 4 3 -2 6 -13 5 -11 0 -14 -3 -6 -6z"/>
<path d="M10035 2170 c-3 -5 -1 -10 4 -10 6 0 11 5 11 10 0 6 -2 10 -4 10 -3
0 -8 -4 -11 -10z"/>
<path d="M8880 1261 c0 -18 26 -31 38 -19 19 19 14 28 -13 28 -14 0 -25 -4
-25 -9z"/>
<path d="M9775 1299 c-9 -14 -2 -20 14 -10 8 6 9 11 3 15 -6 3 -14 1 -17 -5z"/>
<path d="M9817 1283 c-4 -3 -7 -11 -7 -17 0 -6 5 -5 12 2 6 6 9 14 7 17 -3 3
-9 2 -12 -2z"/>
<path d="M12088 863 c7 -3 16 -2 19 1 4 3 -2 6 -13 5 -11 0 -14 -3 -6 -6z"/>
<path d="M12491 689 c-13 -11 -21 -23 -17 -26 4 -4 10 -3 14 3 4 6 15 13 25
17 9 3 17 11 17 17 0 15 -12 12 -39 -11z"/>
<path d="M12240 628 c0 -4 6 -8 14 -8 8 0 21 -3 30 -6 9 -3 16 -2 16 4 0 5
-13 12 -30 14 -16 3 -30 1 -30 -4z"/>
<path d="M12450 610 c0 -5 4 -10 9 -10 6 0 13 5 16 10 3 6 -1 10 -9 10 -9 0
-16 -4 -16 -10z"/>
<path d="M12306 601 c-3 -5 5 -8 19 -7 14 0 25 4 25 9 0 10 -38 9 -44 -2z"/>
<path d="M12331 476 c-9 -11 -8 -15 5 -20 23 -9 24 -8 24 14 0 23 -13 26 -29
6z"/>
<path d="M12037 714 c-11 -11 3 -24 18 -18 8 4 12 10 9 15 -6 11 -18 12 -27 3z"/>
<path d="M11930 650 c0 -5 5 -10 10 -10 6 0 10 5 10 10 0 6 -4 10 -10 10 -5 0
-10 -4 -10 -10z"/>
<path d="M5903 463 c-10 -4 -9 -8 1 -19 15 -14 36 -19 36 -8 0 12 -26 30 -37
27z"/>
<path d="M5790 430 c-13 -9 -13 -12 3 -24 10 -8 15 -20 11 -30 -7 -17 11 -22
21 -6 3 6 18 7 32 4 18 -5 24 -4 19 5 -4 6 -11 9 -16 6 -5 -3 -11 4 -15 14 -3
12 -12 18 -20 15 -7 -3 -15 1 -17 10 -2 11 -7 13 -18 6z"/>
<path d="M12360 290 c0 -5 5 -10 11 -10 5 0 7 5 4 10 -3 6 -8 10 -11 10 -2 0
-4 -4 -4 -10z"/>
<path d="M9268 3313 c6 -2 18 -2 25 0 6 3 1 5 -13 5 -14 0 -19 -2 -12 -5z"/>
<path d="M9327 3314 c-11 -11 -8 -26 4 -19 6 4 16 -1 23 -11 14 -18 37 -12 32
9 -1 7 -1 9 1 5 7 -12 30 -9 36 5 3 8 -10 13 -42 15 -26 1 -50 -1 -54 -4z"/>
<path d="M9443 3307 c5 -15 98 -18 115 -5 9 8 12 6 12 -7 0 -20 24 -15 28 7 2
13 -11 15 -78 16 -55 0 -80 -4 -77 -11z"/>
<path d="M9643 3313 c9 -2 23 -2 30 0 6 3 -1 5 -18 5 -16 0 -22 -2 -12 -5z"/>
<path d="M9720 3312 c0 -13 42 -29 64 -24 15 3 16 6 5 13 -11 7 -11 9 3 9 9 0
18 -4 20 -10 2 -5 19 -7 40 -4 21 4 35 10 32 15 -7 11 -164 12 -164 1z"/>
<path d="M10157 3299 c4 -13 8 -18 11 -10 2 7 -1 18 -6 23 -8 8 -9 4 -5 -13z"/>
<path d="M10186 3308 c4 -7 16 -23 26 -34 10 -12 18 -25 17 -30 -4 -23 3 -24
27 -5 15 12 32 21 39 21 7 0 18 7 25 15 7 8 18 15 24 14 7 0 6 -2 -1 -6 -18
-7 -16 -23 2 -23 8 0 24 -9 34 -19 17 -17 21 -18 32 -5 9 11 9 14 -2 14 -8 0
-23 8 -34 16 -19 15 -19 15 10 8 17 -3 34 -11 40 -15 14 -13 25 -11 25 5 0 9
20 19 50 27 28 7 50 16 50 21 0 4 -84 8 -186 8 -145 0 -184 -3 -178 -12z"/>
<path d="M10560 3304 c0 -8 5 -12 10 -9 6 3 10 10 10 16 0 5 -4 9 -10 9 -5 0
-10 -7 -10 -16z"/>
<path d="M10589 3293 c-13 -15 -17 -22 -9 -16 20 15 62 20 79 9 7 -5 16 -4 20
1 3 5 15 15 26 21 17 10 11 11 -36 12 -48 0 -59 -4 -80 -27z"/>
<path d="M10788 3308 c9 -9 15 -9 24 0 9 9 7 12 -12 12 -19 0 -21 -3 -12 -12z"/>
<path d="M10880 3305 c0 -17 57 -17 63 0 3 7 -8 11 -29 12 -22 1 -34 -4 -34
-12z"/>
<path d="M10955 3310 c-3 -6 1 -18 11 -27 16 -16 16 -16 10 5 -6 16 -3 22 8
22 9 0 18 -11 22 -25 6 -26 18 -32 28 -16 4 5 0 12 -6 15 -10 5 -10 7 0 12 6
3 12 10 12 15 0 12 -77 12 -85 -1z"/>
<path d="M11115 3310 c3 -5 12 -10 20 -10 8 0 17 5 20 10 4 6 -5 10 -20 10
-15 0 -24 -4 -20 -10z"/>
<path d="M11220 3303 c13 -9 31 -17 41 -18 9 -1 24 -7 33 -14 14 -12 16 -11
16 6 0 30 -20 43 -69 43 -45 0 -45 0 -21 -17z"/>
<path d="M7280 3300 c0 -5 5 -10 11 -10 5 0 7 5 4 10 -3 6 -8 10 -11 10 -2 0
-4 -4 -4 -10z"/>
<path d="M7475 3290 c-3 -5 -1 -10 4 -10 6 0 11 5 11 10 0 6 -2 10 -4 10 -3 0
-8 -4 -11 -10z"/>
<path d="M8520 3286 c0 -18 16 -29 30 -21 13 8 1 35 -16 35 -8 0 -14 -6 -14
-14z"/>
<path d="M10697 3286 c-4 -11 1 -14 24 -14 16 1 29 5 29 10 0 4 -4 8 -9 8 -5
0 -16 3 -24 6 -8 3 -17 -2 -20 -10z"/>
<path d="M8850 3280 c-13 -8 -12 -10 3 -10 9 0 17 5 17 10 0 12 -1 12 -20 0z"/>
<path d="M9220 3286 c0 -2 7 -9 15 -16 12 -10 15 -10 15 4 0 9 -7 16 -15 16
-8 0 -15 -2 -15 -4z"/>
<path d="M4010 3260 c0 -5 5 -10 10 -10 6 0 10 5 10 10 0 6 -4 10 -10 10 -5 0
-10 -4 -10 -10z"/>
<path d="M9145 3260 c3 -5 8 -10 11 -10 2 0 4 5 4 10 0 6 -5 10 -11 10 -5 0
-7 -4 -4 -10z"/>
<path d="M10481 3254 c0 -11 3 -14 6 -6 3 7 2 16 -1 19 -3 4 -6 -2 -5 -13z"/>
<path d="M11366 3261 c-3 -5 1 -11 9 -15 8 -3 15 -1 15 4 0 13 -18 22 -24 11z"/>
<path d="M7370 3248 c0 -4 6 -8 14 -8 8 0 17 4 20 8 2 4 -4 8 -15 8 -10 0 -19
-4 -19 -8z"/>
<path d="M3932 3230 c7 -11 19 -20 27 -20 11 0 11 3 1 15 -11 13 -10 14 5 9
13 -5 16 -4 11 4 -4 7 -18 12 -32 12 -22 0 -23 -2 -12 -20z"/>
<path d="M11317 3229 c-3 -13 -1 -19 6 -16 15 5 22 37 9 37 -5 0 -12 -9 -15
-21z"/>
<path d="M7426 3231 c-4 -7 -5 -15 -2 -18 9 -9 19 4 14 18 -4 11 -6 11 -12 0z"/>
<path d="M4000 3220 c-9 -6 -10 -10 -3 -10 6 0 15 5 18 10 8 12 4 12 -15 0z"/>
<path d="M10286 3215 c-9 -23 -8 -25 9 -25 8 0 15 5 15 11 0 5 5 7 11 3 7 -4
10 -1 7 7 -7 20 -34 23 -42 4z"/>
<path d="M11405 3220 c-4 -6 -2 -17 4 -23 15 -15 25 -2 13 19 -7 12 -11 13
-17 4z"/>
<path d="M3705 3210 c-3 -5 -2 -10 4 -10 5 0 13 5 16 10 3 6 2 10 -4 10 -5 0
-13 -4 -16 -10z"/>
<path d="M8860 3211 c0 -5 7 -11 15 -15 9 -3 15 0 15 9 0 8 -7 15 -15 15 -8 0
-15 -4 -15 -9z"/>
<path d="M10440 3204 c0 -8 -4 -12 -10 -9 -5 3 -10 -2 -10 -11 0 -10 3 -14 7
-11 3 4 12 -1 19 -11 15 -21 29 -10 19 15 -5 10 -7 24 -6 31 1 6 -3 12 -9 12
-5 0 -10 -7 -10 -16z"/>
<path d="M11661 3202 c-9 -16 -8 -24 5 -36 8 -9 21 -16 27 -16 8 0 7 3 -2 9
-7 5 -10 14 -7 20 4 6 3 18 -2 28 -9 15 -11 14 -21 -5z"/>
<path d="M2950 3195 c0 -8 2 -15 4 -15 2 0 6 7 10 15 3 8 1 15 -4 15 -6 0 -10
-7 -10 -15z"/>
<path d="M3590 3200 c-8 -5 -11 -12 -8 -16 10 -9 38 3 38 16 0 12 -10 13 -30
0z"/>
<path d="M10370 3199 c0 -5 5 -7 10 -4 6 3 10 8 10 11 0 2 -4 4 -10 4 -5 0
-10 -5 -10 -11z"/>
<path d="M10470 3200 c0 -5 5 -10 10 -10 6 0 10 5 10 10 0 6 -4 10 -10 10 -5
0 -10 -4 -10 -10z"/>
<path d="M11600 3202 c1 -9 30 -48 30 -40 0 4 3 13 6 21 3 9 -3 16 -15 20 -12
3 -21 2 -21 -1z"/>
<path d="M11735 3200 c-4 -6 -2 -17 4 -23 15 -15 25 -2 13 19 -7 12 -11 13
-17 4z"/>
<path d="M2890 3191 c0 -5 7 -11 15 -15 9 -3 15 0 15 9 0 8 -7 15 -15 15 -8 0
-15 -4 -15 -9z"/>
<path d="M3491 3176 c-10 -12 -8 -13 8 -9 12 3 21 9 21 14 0 14 -16 11 -29 -5z"/>
<path d="M3160 3169 c0 -5 5 -7 10 -4 6 3 10 8 10 11 0 2 -4 4 -10 4 -5 0 -10
-5 -10 -11z"/>
<path d="M2792 3158 c3 -7 13 -15 22 -16 12 -3 17 1 14 10 -3 7 -13 15 -22 16
-12 3 -17 -1 -14 -10z"/>
<path d="M10355 3162 c-11 -11 -4 -24 10 -19 8 4 17 2 20 -3 3 -5 12 -7 20 -4
8 4 13 10 10 14 -6 10 -53 19 -60 12z"/>
<path d="M11487 3156 c-4 -10 -1 -13 8 -9 8 3 12 9 9 14 -7 12 -11 11 -17 -5z"/>
<path d="M2877 3145 c2 -7 13 -11 24 -8 25 7 24 10 -5 15 -16 3 -23 1 -19 -7z"/>
<path d="M3252 3148 c2 -6 10 -14 16 -16 7 -2 10 2 6 12 -7 18 -28 22 -22 4z"/>
<path d="M3470 3140 c0 -5 5 -10 10 -10 6 0 10 5 10 10 0 6 -4 10 -10 10 -5 0
-10 -4 -10 -10z"/>
<path d="M3360 3130 c-12 -8 -11 -10 8 -10 12 0 22 5 22 10 0 13 -11 13 -30 0z"/>
<path d="M7790 3129 c0 -5 5 -7 10 -4 6 3 10 8 10 11 0 2 -4 4 -10 4 -5 0 -10
-5 -10 -11z"/>
<path d="M2310 3119 c0 -5 5 -7 10 -4 6 3 10 8 10 11 0 2 -4 4 -10 4 -5 0 -10
-5 -10 -11z"/>
<path d="M2400 3120 c0 -5 5 -10 10 -10 6 0 10 5 10 10 0 6 -4 10 -10 10 -5 0
-10 -4 -10 -10z"/>
<path d="M2715 3120 c-3 -5 1 -10 10 -10 9 0 13 5 10 10 -3 6 -8 10 -10 10 -2
0 -7 -4 -10 -10z"/>
<path d="M3430 3119 c0 -5 5 -7 10 -4 6 3 10 8 10 11 0 2 -4 4 -10 4 -5 0 -10
-5 -10 -11z"/>
<path d="M2516 3111 c-4 -7 -5 -15 -2 -18 9 -9 19 4 14 18 -4 11 -6 11 -12 0z"/>
<path d="M11686 3107 c3 -10 9 -15 12 -12 3 3 0 11 -7 18 -10 9 -11 8 -5 -6z"/>
<path d="M10475 3090 c-3 -5 -1 -10 4 -10 6 0 11 5 11 10 0 6 -2 10 -4 10 -3
0 -8 -4 -11 -10z"/>
<path d="M2217 3083 c-4 -3 -7 -13 -7 -22 1 -13 3 -13 11 2 11 19 8 33 -4 20z"/>
<path d="M9660 3080 c0 -5 7 -10 16 -10 8 0 12 5 9 10 -3 6 -10 10 -16 10 -5
0 -9 -4 -9 -10z"/>
<path d="M10435 3080 c3 -5 8 -10 11 -10 2 0 4 5 4 10 0 6 -5 10 -11 10 -5 0
-7 -4 -4 -10z"/>
<path d="M8928 3073 c-10 -2 -18 -9 -18 -14 0 -11 39 -2 55 12 9 9 -6 10 -37
2z"/>
<path d="M11915 3049 c-11 -17 1 -21 15 -4 8 9 8 15 2 15 -6 0 -14 -5 -17 -11z"/>
<path d="M2858 3043 c7 -3 16 -2 19 1 4 3 -2 6 -13 5 -11 0 -14 -3 -6 -6z"/>
<path d="M11770 3016 c-12 -33 -12 -36 -1 -36 9 0 22 52 15 59 -2 2 -8 -8 -14
-23z"/>
<path d="M9020 2989 c0 -5 5 -7 10 -4 6 3 10 8 10 11 0 2 -4 4 -10 4 -5 0 -10
-5 -10 -11z"/>
<path d="M11980 2983 c0 -10 4 -14 8 -8 4 6 11 13 16 18 5 4 2 7 -7 7 -10 0
-17 -8 -17 -17z"/>
<path d="M2710 2969 c0 -5 5 -7 10 -4 6 3 10 8 10 11 0 2 -4 4 -10 4 -5 0 -10
-5 -10 -11z"/>
<path d="M487 2945 c-8 -19 13 -31 23 -14 9 14 4 29 -10 29 -4 0 -10 -7 -13
-15z"/>
<path d="M1000 2950 c0 -5 5 -10 10 -10 6 0 10 -7 10 -15 0 -9 6 -12 15 -9 8
4 15 10 15 15 0 5 -7 9 -15 9 -8 0 -15 5 -15 10 0 6 -4 10 -10 10 -5 0 -10 -4
-10 -10z"/>
<path d="M1130 2938 c0 -29 16 -46 31 -31 6 6 2 19 -10 34 l-20 24 -1 -27z"/>
<path d="M11975 2950 c3 -5 8 -10 11 -10 2 0 4 5 4 10 0 6 -5 10 -11 10 -5 0
-7 -4 -4 -10z"/>
<path d="M960 2940 c0 -5 5 -10 11 -10 5 0 7 5 4 10 -3 6 -8 10 -11 10 -2 0
-4 -4 -4 -10z"/>
<path d="M1304 2919 c-3 -6 0 -15 7 -20 22 -14 29 -11 29 11 0 21 -24 27 -36
9z"/>
<path d="M11830 2920 c0 -5 5 -10 10 -10 6 0 10 5 10 10 0 6 -4 10 -10 10 -5
0 -10 -4 -10 -10z"/>
<path d="M283 2900 c-2 -17 1 -18 18 -7 24 15 25 27 1 27 -10 0 -18 -8 -19
-20z"/>
<path d="M958 2903 c7 -3 16 -2 19 1 4 3 -2 6 -13 5 -11 0 -14 -3 -6 -6z"/>
<path d="M1506 2885 c-3 -9 0 -15 9 -15 16 0 20 16 6 24 -5 3 -11 -1 -15 -9z"/>
<path d="M12040 2890 c0 -5 5 -10 10 -10 6 0 10 5 10 10 0 6 -4 10 -10 10 -5
0 -10 -4 -10 -10z"/>
<path d="M1097 2883 c-13 -12 -7 -32 8 -27 8 4 15 3 15 -1 0 -3 -7 -13 -15
-21 -12 -12 -15 -12 -15 -2 0 7 -6 2 -13 -12 -15 -30 -15 -86 1 -102 7 -7 12
-18 12 -25 0 -7 5 -13 10 -13 18 0 11 -30 -7 -31 -12 0 -14 -2 -5 -6 7 -3 24
5 36 16 20 18 26 20 37 9 16 -15 126 -18 148 -4 8 5 16 4 21 -4 4 -7 13 -9 19
-6 6 4 21 0 33 -8 25 -18 58 -21 58 -6 0 18 17 10 28 -12 6 -13 11 -17 11 -9
1 10 4 11 15 2 8 -7 25 -13 38 -15 13 -1 34 -8 47 -15 18 -10 22 -10 16 -1 -5
8 -3 11 5 8 21 -7 49 27 43 51 -4 15 -1 21 11 21 28 0 18 15 -19 29 -19 7 -43
10 -54 6 -15 -5 -18 -1 -13 20 2 15 0 25 -7 25 -7 0 -9 -4 -6 -10 7 -11 -8
-14 -19 -3 -7 7 -12 8 -80 16 -22 2 -44 11 -50 19 -6 8 -16 13 -23 11 -6 -2
-14 4 -17 15 -4 13 -16 19 -37 19 l-31 0 23 -18 c24 -18 23 -18 -21 -7 -25 6
-47 14 -50 17 -8 9 -50 9 -50 -1 0 -4 -5 -8 -11 -8 -6 0 -9 7 -5 15 3 8 1 15
-4 15 -6 0 -10 7 -10 16 0 8 -5 12 -11 9 -6 -4 -21 2 -33 14 -12 12 -26 18
-29 14z m103 -193 c0 -5 -5 -10 -11 -10 -5 0 -7 5 -4 10 3 6 8 10 11 10 2 0 4
-4 4 -10z"/>
<path d="M7628 2873 c-10 -3 -18 -9 -18 -14 0 -15 30 -23 43 -10 14 14 -2 29
-25 24z"/>
<path d="M11578 2863 c7 -3 16 -2 19 1 4 3 -2 6 -13 5 -11 0 -14 -3 -6 -6z"/>
<path d="M12190 2835 c0 -8 2 -15 4 -15 2 0 6 7 10 15 3 8 1 15 -4 15 -6 0
-10 -7 -10 -15z"/>
<path d="M1275 2830 c3 -5 8 -10 11 -10 2 0 4 5 4 10 0 6 -5 10 -11 10 -5 0
-7 -4 -4 -10z"/>
<path d="M77 2816 c-4 -10 0 -12 14 -9 10 3 16 9 13 14 -8 13 -21 11 -27 -5z"/>
<path d="M11368 2822 c-19 -4 -24 -17 -10 -26 11 -7 35 10 31 21 -2 5 -12 7
-21 5z"/>
<path d="M9850 2813 c0 -15 19 -37 26 -31 3 4 -1 14 -10 23 -9 9 -16 13 -16 8z"/>
<path d="M11820 2798 c0 -7 5 -20 10 -28 8 -12 10 -9 10 13 0 15 -4 27 -10 27
-5 0 -10 -6 -10 -12z"/>
<path d="M1915 2789 c18 -5 33 -5 39 1 7 7 -4 10 -29 9 -40 -1 -40 -1 -10 -10z"/>
<path d="M9820 2779 c0 -5 5 -7 10 -4 6 3 10 8 10 11 0 2 -4 4 -10 4 -5 0 -10
-5 -10 -11z"/>
<path d="M12050 2786 c0 -2 7 -6 15 -10 8 -3 15 -1 15 4 0 6 -7 10 -15 10 -8
0 -15 -2 -15 -4z"/>
<path d="M12121 2736 c-16 -19 -11 -29 8 -17 7 5 12 14 9 21 -3 9 -8 7 -17 -4z"/>
<path d="M658 2733 c7 -3 16 -2 19 1 4 3 -2 6 -13 5 -11 0 -14 -3 -6 -6z"/>
<path d="M590 2720 c0 -5 5 -10 10 -10 6 0 10 5 10 10 0 6 -4 10 -10 10 -5 0
-10 -4 -10 -10z"/>
<path d="M1776 2698 c3 -4 12 -8 20 -8 8 0 14 4 14 8 0 4 -9 8 -19 8 -11 0
-17 -4 -15 -8z"/>
<path d="M620 2691 c0 -5 5 -13 10 -16 6 -3 10 -2 10 4 0 5 -4 13 -10 16 -5 3
-10 2 -10 -4z"/>
<path d="M9815 2689 c-4 -6 -5 -13 -2 -16 7 -7 27 6 27 18 0 12 -17 12 -25 -2z"/>
<path d="M9720 2676 c0 -8 7 -16 15 -20 20 -7 19 -24 -2 -28 -13 -2 -14 -6 -6
-11 7 -5 21 1 34 14 l21 21 -21 19 c-24 22 -41 25 -41 5z"/>
<path d="M9878 2683 c6 -2 18 -2 25 0 6 3 1 5 -13 5 -14 0 -19 -2 -12 -5z"/>
<path d="M1726 2655 c3 -17 -1 -27 -11 -31 -21 -9 -8 -24 21 -24 14 0 24 -6
24 -14 0 -9 7 -12 20 -9 14 4 20 0 20 -10 0 -13 9 -15 45 -11 32 2 56 -2 81
-15 19 -10 44 -16 55 -14 12 3 24 0 29 -6 5 -9 16 -7 41 8 33 20 33 21 9 23
-14 0 -33 1 -42 0 -10 -1 -18 3 -18 8 0 15 31 25 39 13 6 -11 58 -10 69 2 13
12 -21 22 -72 21 -28 -1 -57 2 -64 7 -9 7 -20 3 -35 -11 -18 -17 -33 -21 -67
-19 -53 4 -60 16 -20 39 17 9 30 22 30 28 0 17 -31 24 -41 9 -7 -11 -9 -10 -9
5 0 18 -1 18 -18 3 -23 -21 -39 -22 -23 -3 8 9 8 16 2 20 -5 4 -12 2 -16 -4
-3 -5 -11 -10 -16 -10 -6 0 -7 5 -4 10 3 6 -3 10 -14 10 -16 0 -19 -5 -15 -25z"/>
<path d="M1140 2644 c0 -8 5 -12 10 -9 6 3 10 10 10 16 0 5 -4 9 -10 9 -5 0
-10 -7 -10 -16z"/>
<path d="M1907 2612 c-19 -21 -22 -32 -7 -32 12 0 50 32 50 42 0 15 -27 8 -43
-10z"/>
<path d="M6696 2614 c-4 -10 -1 -14 6 -12 15 5 23 28 10 28 -5 0 -13 -7 -16
-16z"/>
<path d="M12560 2585 c0 -33 15 -33 16 0 1 14 -2 25 -7 25 -5 0 -9 -11 -9 -25z"/>
<path d="M12497 2594 c-10 -11 -9 -54 2 -54 15 0 18 13 12 38 -3 13 -9 20 -14
16z"/>
<path d="M12230 2581 c0 -5 7 -11 15 -15 9 -3 15 0 15 9 0 8 -7 15 -15 15 -8
0 -15 -4 -15 -9z"/>
<path d="M12410 2580 c0 -5 -7 -10 -16 -10 -10 0 -14 -6 -11 -14 3 -8 1 -16
-5 -18 -7 -3 -8 -10 -4 -17 6 -9 15 -2 32 23 27 39 29 46 14 46 -5 0 -10 -4
-10 -10z"/>
<path d="M9846 2545 c4 -8 10 -12 15 -9 11 6 2 24 -11 24 -5 0 -7 -7 -4 -15z"/>
<path d="M12285 2550 c3 -5 14 -10 23 -10 15 0 15 2 2 10 -20 13 -33 13 -25 0z"/>
<path d="M12425 2550 c3 -5 10 -10 16 -10 5 0 9 5 9 10 0 6 -7 10 -16 10 -8 0
-12 -4 -9 -10z"/>
<path d="M12245 2529 c-11 -16 -1 -19 13 -3 7 8 8 14 3 14 -5 0 -13 -5 -16
-11z"/>
<path d="M12271 2502 c-14 -26 -7 -42 10 -25 6 6 9 19 7 29 -3 17 -5 17 -17
-4z"/>
<path d="M30 2490 c0 -5 5 -10 10 -10 6 0 10 5 10 10 0 6 -4 10 -10 10 -5 0
-10 -4 -10 -10z"/>
<path d="M12208 2493 c6 -2 18 -2 25 0 6 3 1 5 -13 5 -14 0 -19 -2 -12 -5z"/>
<path d="M0 2443 l1 -48 15 28 c11 20 12 32 4 47 -16 30 -20 25 -20 -27z"/>
<path d="M12433 2483 c-18 -6 -16 -23 1 -23 17 0 30 16 19 23 -5 2 -14 2 -20
0z"/>
<path d="M1134 2453 c3 -6 0 -15 -7 -20 -25 -15 -29 -45 -8 -65 11 -10 24 -18
30 -18 5 0 12 -8 16 -17 6 -16 8 -16 25 5 21 25 73 28 92 5 8 -10 14 -11 25
-2 7 7 17 8 21 4 4 -4 1 -10 -5 -12 -7 -3 -13 -10 -13 -16 0 -8 4 -7 12 1 15
15 68 16 68 1 0 -10 16 -7 59 9 9 3 12 1 7 -6 -9 -15 9 -15 36 -1 18 9 19 8
13 -10 -5 -18 -3 -21 22 -18 15 2 38 9 50 15 12 7 29 9 37 6 9 -3 16 -2 16 2
-1 20 -17 30 -45 29 -16 -1 -47 8 -67 18 -30 16 -40 18 -52 8 -9 -7 -17 -8
-20 -2 -3 5 0 12 6 15 7 3 3 3 -10 0 -13 -3 -29 0 -37 6 -12 10 -19 10 -32 -1
-14 -12 -16 -12 -8 0 6 11 2 13 -25 8 -26 -6 -31 -4 -26 8 3 9 0 15 -9 15 -8
0 -15 -5 -15 -11 0 -5 -10 -3 -22 5 -12 9 -30 16 -40 16 -10 0 -18 6 -18 13
-1 7 -6 5 -14 -5 -17 -23 -21 -23 -47 5 -12 12 -19 17 -15 10z"/>
<path d="M12230 2450 c0 -5 5 -10 11 -10 5 0 7 5 4 10 -3 6 -8 10 -11 10 -2 0
-4 -4 -4 -10z"/>
<path d="M10750 2431 c0 -5 5 -13 10 -16 6 -3 10 -2 10 4 0 5 -4 13 -10 16 -5
3 -10 2 -10 -4z"/>
<path d="M12065 2400 c3 -5 8 -10 11 -10 2 0 4 5 4 10 0 6 -5 10 -11 10 -5 0
-7 -4 -4 -10z"/>
<path d="M8340 2343 c0 -14 19 -38 25 -32 8 8 -5 39 -16 39 -5 0 -9 -3 -9 -7z"/>
<path d="M1126 2333 c-3 -3 -3 -10 0 -14 7 -12 34 -11 34 0 0 11 -26 22 -34
14z"/>
<path d="M1765 2320 c3 -5 8 -10 11 -10 2 0 4 5 4 10 0 6 -5 10 -11 10 -5 0
-7 -4 -4 -10z"/>
<path d="M1802 2308 c-7 -7 -12 -18 -12 -25 0 -7 -8 -13 -17 -13 -15 0 -16 2
-3 10 12 7 10 11 -10 18 -31 12 -34 9 -21 -17 10 -17 19 -20 59 -17 26 2 56 7
66 11 14 6 17 5 12 -3 -5 -8 0 -12 13 -12 12 0 21 -4 21 -9 0 -4 12 -6 26 -3
19 3 23 7 12 14 -9 7 -7 8 8 4 11 -4 29 1 40 9 18 13 16 14 -23 15 -24 0 -43
-5 -46 -12 -4 -10 -8 -10 -15 1 -11 15 -82 23 -82 9 0 -4 -5 -8 -12 -8 -9 0
-9 3 0 12 14 14 16 28 4 28 -4 0 -13 -5 -20 -12z"/>
<path d="M2013 2261 c-18 -9 -31 -20 -29 -26 5 -16 74 -15 80 2 5 11 1 13 -17
7 -22 -7 -22 -6 -3 15 22 24 14 25 -31 2z"/>
<path d="M12358 2217 c12 -13 19 -27 15 -31 -4 -4 1 -4 12 0 27 10 49 33 41
42 -4 3 -11 0 -16 -8 -7 -12 -12 -12 -28 3 -29 27 -50 21 -24 -6z"/>
<path d="M12340 2130 c0 -5 -7 -10 -16 -10 -14 0 -14 -1 0 -16 9 -8 21 -14 28
-12 16 6 18 48 1 48 -7 0 -13 -4 -13 -10z"/>
<path d="M12560 2054 c-16 -42 -7 -56 11 -17 9 18 13 36 8 39 -5 3 -14 -7 -19
-22z"/>
<path d="M12395 2060 c-3 -5 -1 -10 4 -10 6 0 11 5 11 10 0 6 -2 10 -4 10 -3
0 -8 -4 -11 -10z"/>
<path d="M7133 2005 c0 -27 2 -38 4 -22 2 15 2 37 0 50 -2 12 -4 0 -4 -28z"/>
<path d="M12495 2040 c-3 -5 -1 -10 4 -10 6 0 11 5 11 10 0 6 -2 10 -4 10 -3
0 -8 -4 -11 -10z"/>
<path d="M1177 2032 c-17 -7 -16 -9 3 -30 27 -28 27 -28 22 8 -2 17 -5 30 -6
29 0 0 -9 -4 -19 -7z"/>
<path d="M1230 2033 c0 -11 51 -33 61 -27 5 3 9 -1 9 -9 0 -17 24 -30 59 -32
16 -1 26 6 32 23 7 19 15 23 34 20 13 -3 22 -1 19 3 -8 14 -52 11 -58 -3 -5
-10 -7 -10 -12 0 -8 17 -34 15 -34 -2 0 -8 -5 -18 -11 -22 -7 -4 -10 -1 -7 7
3 9 -10 20 -35 31 -43 20 -57 22 -57 11z"/>
<path d="M1590 1989 c0 -5 5 -7 10 -4 6 3 10 8 10 11 0 2 -4 4 -10 4 -5 0 -10
-5 -10 -11z"/>
<path d="M12230 1969 c0 -8 5 -21 10 -29 8 -12 9 -10 7 7 -4 26 -17 43 -17 22z"/>
<path d="M1765 1960 c4 -6 11 -8 16 -5 14 9 11 15 -7 15 -8 0 -12 -5 -9 -10z"/>
<path d="M1350 1940 c0 -5 5 -10 11 -10 5 0 7 5 4 10 -3 6 -8 10 -11 10 -2 0
-4 -4 -4 -10z"/>
<path d="M10740 1939 c0 -5 5 -7 10 -4 6 3 10 8 10 11 0 2 -4 4 -10 4 -5 0
-10 -5 -10 -11z"/>
<path d="M175 1931 c-3 -5 -1 -12 5 -16 5 -3 10 1 10 9 0 18 -6 21 -15 7z"/>
<path d="M1980 1919 c0 -5 5 -7 10 -4 6 3 10 8 10 11 0 2 -4 4 -10 4 -5 0 -10
-5 -10 -11z"/>
<path d="M6 1824 c-12 -31 -6 -102 8 -107 10 -4 13 -1 10 7 -3 7 1 16 9 19 18
7 21 78 4 89 -18 11 -24 10 -31 -8z"/>
<path d="M12366 1821 c-3 -5 1 -14 9 -21 13 -10 15 -9 15 9 0 21 -14 28 -24
12z"/>
<path d="M12670 1800 c0 -5 5 -10 11 -10 5 0 7 5 4 10 -3 6 -8 10 -11 10 -2 0
-4 -4 -4 -10z"/>
<path d="M12177 1793 c-4 -3 -7 -11 -7 -17 0 -6 5 -5 12 2 6 6 9 14 7 17 -3 3
-9 2 -12 -2z"/>
<path d="M12635 1790 c-3 -5 1 -10 10 -10 9 0 13 5 10 10 -3 6 -8 10 -10 10
-2 0 -7 -4 -10 -10z"/>
<path d="M12470 1780 c0 -5 4 -10 9 -10 6 0 13 5 16 10 3 6 -1 10 -9 10 -9 0
-16 -4 -16 -10z"/>
<path d="M12522 1775 c-7 -8 -9 -15 -4 -15 5 0 15 7 22 15 16 19 -1 19 -18 0z"/>
<path d="M12590 1780 c0 -5 5 -10 10 -10 6 0 10 5 10 10 0 6 -4 10 -10 10 -5
0 -10 -4 -10 -10z"/>
<path d="M360 1730 c0 -5 5 -10 11 -10 5 0 7 5 4 10 -3 6 -8 10 -11 10 -2 0
-4 -4 -4 -10z"/>
<path d="M1302 1630 c14 -22 24 -19 15 5 -4 8 -11 15 -17 15 -6 0 -6 -7 2 -20z"/>
<path d="M1234 1619 c0 -14 4 -15 18 -8 14 7 16 6 12 -6 -4 -8 -2 -15 4 -15 5
0 12 9 15 19 3 15 -2 20 -22 23 -20 3 -27 0 -27 -13z"/>
<path d="M12033 1500 c-9 -13 -9 -21 -2 -26 11 -7 40 26 33 38 -8 13 -19 9
-31 -12z"/>
<path d="M11990 1490 c0 -11 4 -20 9 -20 5 0 7 9 4 20 -3 11 -7 20 -9 20 -2 0
-4 -9 -4 -20z"/>
<path d="M11940 1483 c0 -13 5 -23 10 -23 13 0 13 11 0 30 -8 12 -10 11 -10
-7z"/>
<path d="M12145 1420 c-3 -5 -2 -10 4 -10 5 0 13 5 16 10 3 6 2 10 -4 10 -5 0
-13 -4 -16 -10z"/>
<path d="M12285 1410 c-3 -5 1 -10 9 -10 9 0 16 5 16 10 0 6 -4 10 -9 10 -6 0
-13 -4 -16 -10z"/>
<path d="M12335 1360 c3 -5 11 -10 16 -10 6 0 7 5 4 10 -3 6 -11 10 -16 10 -6
0 -7 -4 -4 -10z"/>
<path d="M12313 1305 c-6 -14 -8 -27 -5 -28 10 -5 53 -1 79 8 22 7 40 35 23
35 -6 0 -10 -4 -10 -10 0 -5 -6 -10 -14 -10 -8 0 -16 -4 -18 -10 -1 -5 -13 -7
-26 -4 -17 5 -20 10 -12 19 6 7 19 11 29 8 10 -3 22 0 25 6 5 7 -5 11 -26 11
-25 0 -36 -6 -45 -25z"/>
<path d="M1460 1300 c0 -5 5 -10 10 -10 6 0 10 5 10 10 0 6 -4 10 -10 10 -5 0
-10 -4 -10 -10z"/>
<path d="M1508 1303 c-22 -6 -22 -9 0 -34 18 -19 19 -19 19 11 0 16 -1 29 -1
29 -1 -1 -9 -3 -18 -6z"/>
<path d="M1763 1295 c-8 -21 1 -28 26 -20 12 4 18 12 14 21 -7 19 -32 18 -40
-1z"/>
<path d="M12192 1303 c1 -5 -3 -18 -10 -30 -9 -17 -9 -22 0 -25 16 -6 41 19
33 32 -3 5 -1 10 5 10 6 0 8 5 5 10 -7 12 -36 14 -33 3z"/>
<path d="M1305 1294 c-5 -1 -23 -5 -40 -9 -22 -5 -26 -9 -15 -15 19 -10 49 -7
74 7 14 7 15 11 5 15 -8 3 -18 4 -24 2z"/>
<path d="M1353 1293 c4 -3 0 -17 -8 -30 -18 -27 -9 -31 11 -5 17 21 18 42 2
42 -6 0 -8 -3 -5 -7z"/>
<path d="M1586 1291 c-4 -7 -5 -15 -2 -18 9 -9 19 4 14 18 -4 11 -6 11 -12 0z"/>
<path d="M12437 1294 c-7 -7 37 -34 54 -34 5 0 9 8 9 18 0 12 -9 18 -28 20
-16 1 -32 -1 -35 -4z"/>
<path d="M1401 1276 c-10 -12 -8 -13 10 -9 18 5 21 3 16 -10 -4 -10 -2 -17 2
-17 15 0 22 33 9 42 -18 11 -24 10 -37 -6z"/>
<path d="M1850 1260 c6 -11 15 -20 21 -20 6 0 6 7 -1 20 -6 11 -15 20 -21 20
-6 0 -6 -7 1 -20z"/>
<path d="M1960 1266 c4 -4 16 -4 26 2 16 9 14 10 -8 9 -15 -1 -23 -6 -18 -11z"/>
<path d="M12280 1270 c0 -5 5 -10 11 -10 5 0 7 5 4 10 -3 6 -8 10 -11 10 -2 0
-4 -4 -4 -10z"/>
<path d="M12520 1270 c0 -5 5 -10 11 -10 5 0 7 5 4 10 -3 6 -8 10 -11 10 -2 0
-4 -4 -4 -10z"/>
<path d="M1480 1261 c0 -5 5 -13 10 -16 6 -3 10 -2 10 4 0 5 -4 13 -10 16 -5
3 -10 2 -10 -4z"/>
<path d="M1285 1240 c3 -5 8 -10 11 -10 2 0 4 5 4 10 0 6 -5 10 -11 10 -5 0
-7 -4 -4 -10z"/>
<path d="M12330 1221 c0 -16 26 -30 39 -22 13 9 9 13 -21 24 -10 4 -18 3 -18
-2z"/>
<path d="M12545 1221 c-3 -5 -1 -12 5 -16 5 -3 10 1 10 9 0 18 -6 21 -15 7z"/>
<path d="M12220 1210 c0 -5 4 -10 9 -10 6 0 13 5 16 10 3 6 -1 10 -9 10 -9 0
-16 -4 -16 -10z"/>
<path d="M12400 1159 c0 -5 5 -7 10 -4 6 3 10 8 10 11 0 2 -4 4 -10 4 -5 0
-10 -5 -10 -11z"/>
<path d="M12367 1154 c-4 -4 -7 -14 -7 -23 0 -11 3 -12 11 -4 6 6 10 16 7 23
-2 6 -7 8 -11 4z"/>
<path d="M12422 1136 c1 -10 8 -17 13 -17 15 1 12 24 -3 29 -9 3 -13 -2 -10
-12z"/>
<path d="M3156 1071 c-4 -7 -5 -15 -2 -18 9 -9 19 4 14 18 -4 11 -6 11 -12 0z"/>
<path d="M1980 990 c0 -5 5 -10 11 -10 5 0 7 5 4 10 -3 6 -8 10 -11 10 -2 0
-4 -4 -4 -10z"/>
<path d="M2020 978 c-63 -17 -100 -21 -100 -9 0 6 -4 11 -10 11 -17 0 -11 -20
8 -27 9 -4 20 -11 24 -17 4 -6 12 -5 22 4 9 7 19 10 23 7 3 -4 12 -2 20 4 7 6
22 9 33 6 11 -3 20 -4 20 -2 0 2 3 10 6 19 7 18 4 18 -46 4z"/>
<path d="M1833 972 c-7 -4 -11 -17 -11 -29 2 -18 6 -19 32 -12 17 5 32 9 33 9
2 0 3 9 3 20 0 11 -4 20 -10 20 -5 0 -10 -9 -10 -20 0 -11 -6 -20 -13 -20 -21
0 -28 12 -16 27 13 15 10 16 -8 5z"/>
<path d="M1408 963 c10 -4 10 -8 1 -19 -9 -11 -8 -14 7 -15 11 -1 23 -1 27 0
4 1 18 -8 30 -20 18 -17 23 -18 25 -5 3 16 14 20 40 17 16 -2 15 7 -2 25 -19
18 -30 18 -23 0 3 -8 -1 -17 -9 -20 -25 -9 -27 -7 -20 19 7 29 0 32 -27 8 -18
-17 -19 -17 -28 0 -6 9 -15 17 -22 16 -8 0 -8 -2 1 -6z"/>
<path d="M1540 962 c1 -9 26 -42 33 -42 11 0 -6 39 -19 44 -8 3 -14 2 -14 -2z"/>
<path d="M1763 950 c-10 -15 -9 -19 8 -23 14 -4 19 0 19 13 0 27 -14 32 -27
10z"/>
<path d="M1590 950 c0 -5 5 -10 10 -10 6 0 10 5 10 10 0 6 -4 10 -10 10 -5 0
-10 -4 -10 -10z"/>
<path d="M1297 923 c9 -16 18 -29 19 -31 0 -1 8 0 17 4 13 5 14 10 6 25 -5 11
-14 17 -19 14 -5 -3 -11 -1 -15 5 -3 5 -11 10 -16 10 -5 0 -2 -12 8 -27z"/>
<path d="M1230 930 c0 -5 -12 -10 -26 -10 -33 0 -23 -16 14 -22 30 -4 58 15
47 32 -8 13 -35 13 -35 0z"/>
<path d="M1375 919 c-10 -15 3 -25 16 -12 7 7 7 13 1 17 -6 3 -14 1 -17 -5z"/>
<path d="M970 854 c0 -4 8 -13 18 -20 20 -16 62 -18 62 -4 0 6 -11 10 -24 10
-14 0 -28 5 -31 10 -7 11 -25 14 -25 4z"/>
<path d="M740 778 c-14 -5 -56 -10 -95 -9 -38 0 -74 -4 -80 -8 -5 -5 -48 -11
-95 -15 -47 -4 -137 -12 -200 -19 -98 -11 -117 -11 -126 1 -8 12 -13 10 -27
-12 -27 -40 -22 -56 18 -56 22 0 37 6 44 17 7 13 14 15 32 7 14 -7 41 -7 73
-2 28 5 81 9 118 9 72 1 100 -7 77 -22 -10 -6 -8 -9 8 -9 14 0 21 5 18 13 -4
9 29 17 122 30 155 21 153 21 153 0 0 -13 3 -14 11 -6 6 6 18 9 25 6 8 -3 21
0 30 7 11 10 18 10 26 2 16 -16 28 -15 28 3 0 8 9 15 20 15 11 0 20 -7 20 -15
0 -8 -8 -15 -18 -15 -10 0 -22 -3 -26 -7 -8 -8 -22 -11 -91 -16 -22 -1 -45 -6
-52 -10 -6 -4 -22 -7 -34 -6 -53 2 -225 -14 -235 -22 -14 -12 -162 -32 -186
-26 -11 3 -31 -5 -47 -19 -32 -27 -59 -31 -67 -10 -4 11 -19 13 -62 9 -31 -3
-70 -6 -87 -7 l-30 -2 -3 -292 -2 -292 322 0 c178 0 338 4 355 9 21 6 42 6 61
-1 19 -8 59 -8 123 -2 93 9 94 9 97 37 2 16 9 30 15 32 7 2 61 6 121 9 61 3
114 10 120 16 11 11 46 -15 46 -34 1 -6 11 -23 23 -39 l23 -27 332 2 331 3
-53 85 c-28 47 -55 94 -59 104 -5 14 -15 17 -38 14 -16 -3 -32 0 -36 5 -3 5
-9 4 -13 -3 -4 -7 -15 -10 -25 -7 -26 11 -6 30 26 23 23 -4 27 -2 22 10 -3 9
0 20 7 24 10 6 6 21 -21 65 -19 31 -41 64 -49 73 -9 9 -37 53 -63 97 -26 44
-61 95 -77 113 -30 32 -33 33 -105 31 -83 -2 -86 -3 -103 -42 -12 -28 -37 -45
-49 -33 -3 3 2 15 12 26 13 14 15 24 8 31 -8 8 -17 4 -31 -11 -17 -19 -26 -21
-68 -14 -77 11 -150 40 -200 78 -26 20 -53 36 -61 36 -8 0 -12 4 -8 9 3 5 -9
20 -27 32 -18 13 -35 26 -38 29 -9 10 -154 9 -180 -2z m-585 -218 c3 -5 2 -10
-4 -10 -5 0 -13 5 -16 10 -3 6 -2 10 4 10 5 0 13 -4 16 -10z m535 -30 c12 -8
13 -12 2 -19 -8 -4 -13 -12 -12 -17 1 -10 -120 -36 -138 -29 -8 3 -12 16 -10
32 2 23 9 29 38 34 56 10 104 9 120 -1z m-250 -24 c0 -32 -13 -46 -42 -46 -17
0 -27 4 -23 10 3 6 -1 10 -9 10 -8 0 -19 -7 -23 -15 -5 -8 -23 -17 -40 -21
-29 -6 -33 -3 -39 21 -9 35 1 43 61 48 108 8 115 7 115 -7z m655 -56 c-31 -33
-45 -38 -45 -16 0 16 38 45 59 45 9 1 4 -10 -14 -29z m-458 -29 c5 -21 45 -31
83 -20 45 13 112 10 107 -3 -2 -7 -11 -12 -21 -10 -11 2 -16 -4 -16 -18 0 -17
5 -21 28 -18 24 3 27 7 24 36 -2 23 1 32 11 32 22 0 35 -22 39 -65 3 -38 5
-40 41 -43 30 -3 39 1 45 18 7 20 9 20 21 6 24 -29 101 -14 101 20 0 8 -10 19
-22 24 -21 8 -20 9 9 9 34 1 33 2 47 -89 1 -8 9 -14 19 -12 12 2 17 -4 17 -18
0 -17 -4 -20 -20 -15 -17 5 -20 2 -20 -27 l0 -33 -18 35 c-10 19 -24 34 -31
32 -42 -9 -131 -5 -145 7 -14 11 -16 11 -16 -3 0 -10 -4 -14 -10 -11 -6 4 -10
-10 -10 -34 0 -21 -3 -46 -6 -55 -5 -14 -9 -14 -33 3 -14 10 -37 20 -51 23
-14 3 -33 9 -44 13 -15 7 -17 5 -12 -11 5 -16 0 -19 -30 -21 -19 -1 -41 -7
-49 -13 -10 -8 -14 -8 -17 1 -3 9 -9 9 -25 0 -12 -6 -41 -11 -65 -11 -24 -1
-63 -5 -88 -11 -25 -6 -55 -10 -68 -10 -12 1 -25 -6 -29 -15 -5 -13 -7 -13
-14 -2 -5 7 -9 22 -9 34 0 24 -53 67 -77 62 -9 -2 -22 -19 -29 -38 -15 -42
-14 -43 -20 44 -2 37 -9 76 -14 86 -7 13 -7 21 1 25 13 9 14 7 26 -30 11 -34
28 -40 67 -26 24 10 26 14 21 48 -11 83 -11 92 4 98 9 3 22 -3 31 -14 8 -11
30 -21 50 -23 19 -2 33 -7 30 -13 -3 -5 -15 -9 -27 -7 -25 3 -31 -16 -11 -36
9 -9 16 -8 28 3 12 11 24 13 41 7 31 -11 119 -6 132 7 7 7 16 7 29 0 16 -9 62
-6 111 8 15 4 16 8 6 19 -10 12 -37 14 -141 10 -95 -3 -127 -1 -119 7 6 6 34
10 61 9 47 -2 50 -1 50 23 0 29 20 34 27 6z m563 -26 c0 -11 -11 -15 -37 -15
-40 0 -36 15 7 23 14 2 26 5 28 6 1 0 2 -6 2 -14z m413 -4 c14 -6 28 -19 32
-30 3 -12 12 -21 20 -21 8 0 17 -9 20 -20 4 -13 15 -20 33 -20 41 0 14 -16
-58 -34 -67 -17 -361 -42 -384 -33 -7 3 -16 23 -19 44 -3 21 -9 48 -12 60 -5
16 -2 23 17 29 18 5 198 25 310 33 9 0 28 -3 41 -8z m-1473 -16 c-1 -12 -50
-17 -50 -5 0 9 28 19 43 16 5 -1 8 -6 7 -11z m840 5 c13 -8 13 -10 -2 -10 -9
0 -20 5 -23 10 -8 13 5 13 25 0z m-886 -76 c18 -7 12 -24 -10 -24 -8 0 -14 7
-14 15 0 17 2 18 24 9z m1120 -84 c4 -31 3 -40 -4 -30 -5 8 -10 30 -10 49 0
45 6 37 14 -19z m-1154 -25 c-7 -9 -15 -13 -19 -10 -3 3 1 10 9 15 21 14 24
12 10 -5z m1640 5 c-20 -13 -33 -13 -25 0 3 6 14 10 23 10 15 0 15 -2 2 -10z
m-507 -15 c3 -13 -29 -19 -51 -10 -15 6 -15 8 3 15 24 11 45 8 48 -5z m467 6
c0 -10 -30 -24 -37 -17 -3 3 -2 9 2 15 8 13 35 15 35 2z m-116 -30 c7 -10 -27
-21 -69 -21 -17 0 -35 -4 -40 -9 -21 -19 -70 -20 -92 -1 -13 10 -23 20 -23 22
0 2 36 3 80 2 44 -1 83 2 86 7 7 12 51 12 58 0z m-1324 -21 c0 -22 -25 -27
-50 -10 -13 9 -13 11 0 20 25 17 50 12 50 -10z m-130 -50 c0 -5 -2 -10 -4 -10
-3 0 -8 5 -11 10 -3 6 -1 10 4 10 6 0 11 -4 11 -10z"/>
<path d="M467 192 c-17 -3 -21 -24 -4 -23 4 1 21 1 38 1 16 0 28 4 25 9 -7 11
-36 18 -59 13z"/>
<path d="M547 193 c-10 -9 -9 -23 1 -23 5 0 17 7 28 15 19 14 19 14 -2 15 -11
0 -24 -3 -27 -7z"/>
<path d="M1456 295 c-3 -9 -9 -14 -14 -11 -4 2 -14 1 -22 -5 -11 -6 -4 -9 23
-9 38 0 43 5 28 28 -7 11 -9 10 -15 -3z"/>
<path d="M1535 290 c-18 -8 -17 -9 8 -9 16 -1 26 3 22 9 -3 6 -7 10 -8 9 -1 0
-11 -4 -22 -9z"/>
<path d="M1305 270 c-3 -5 -1 -10 4 -10 6 0 11 5 11 10 0 6 -2 10 -4 10 -3 0
-8 -4 -11 -10z"/>
<path d="M1357 269 c7 -7 15 -10 18 -7 3 3 -2 9 -12 12 -14 6 -15 5 -6 -5z"/>
<path d="M3288 783 c7 -3 16 -2 19 1 4 3 -2 6 -13 5 -11 0 -14 -3 -6 -6z"/>
<path d="M3130 766 c0 -2 7 -6 15 -10 8 -3 15 -1 15 4 0 6 -7 10 -15 10 -8 0
-15 -2 -15 -4z"/>
<path d="M2000 702 c0 -4 -16 -7 -35 -7 -19 1 -35 -2 -35 -6 0 -4 -7 -9 -14
-12 -10 -4 -13 -1 -10 8 4 10 0 12 -15 8 -12 -3 -21 -8 -21 -12 0 -4 -9 -7
-20 -8 -11 -1 -20 3 -20 9 0 7 -5 6 -15 -2 -8 -7 -22 -10 -30 -6 -9 3 -15 0
-15 -9 0 -8 -6 -12 -12 -10 -8 3 -14 -4 -14 -20 -2 -25 0 -26 42 -19 32 4 44
3 44 -6 0 -9 3 -10 14 -1 7 6 20 9 29 5 8 -3 18 -1 22 5 4 7 16 6 36 -5 17 -8
36 -13 42 -10 7 2 4 5 -5 5 -10 1 -18 5 -18 10 0 5 18 7 40 4 26 -4 40 -2 40
6 0 6 6 11 14 11 23 0 40 28 27 43 -6 8 -8 17 -4 20 3 4 1 7 -5 7 -7 0 -12 -4
-12 -10 0 -5 -7 -10 -15 -10 -8 0 -15 5 -15 10 0 6 -4 10 -10 10 -5 0 -10 -4
-10 -8z m-130 -61 c6 -2 -22 -21 -31 -21 -4 0 -9 6 -12 14 -5 11 16 15 43 7z"/>
<path d="M2660 681 c5 -11 15 -23 20 -26 6 -3 10 -15 10 -26 0 -10 5 -19 11
-19 15 0 2 50 -18 73 -22 23 -36 22 -23 -2z"/>
<path d="M1265 660 c-3 -5 -1 -10 4 -10 6 0 11 5 11 10 0 6 -2 10 -4 10 -3 0
-8 -4 -11 -10z"/>
<path d="M1597 640 c6 -22 18 -26 29 -9 3 6 0 15 -7 20 -22 14 -28 11 -22 -11z"/>
<path d="M1260 626 c0 -9 30 -14 35 -6 4 6 -3 10 -14 10 -12 0 -21 -2 -21 -4z"/>
<path d="M1959 362 c-23 -10 -34 -11 -37 -3 -5 16 -22 13 -22 -4 0 -17 -16
-20 -25 -6 -5 10 -37 7 -55 -4 -13 -8 -13 -45 -1 -45 5 0 12 6 14 13 3 6 6 1
6 -12 1 -18 4 -21 14 -13 7 6 28 7 55 2 33 -6 45 -4 49 6 3 9 14 11 34 7 18
-3 29 -1 29 6 0 6 7 11 15 11 14 0 20 13 16 34 -1 5 3 13 10 17 21 13 -67 5
-102 -9z m66 -12 c3 -5 1 -10 -4 -10 -6 0 -11 5 -11 10 0 6 2 10 4 10 3 0 8
-4 11 -10z m-160 -29 c-6 -5 -25 10 -25 20 0 5 6 4 14 -3 8 -7 12 -15 11 -17z"/>
<path d="M2404 284 c3 -9 6 -18 6 -20 0 -2 4 -4 9 -4 5 0 7 9 4 20 -3 11 -10
20 -15 20 -6 0 -7 -7 -4 -16z"/>
<path d="M2075 70 c-3 -5 -1 -10 4 -10 6 0 11 5 11 10 0 6 -2 10 -4 10 -3 0
-8 -4 -11 -10z"/>
<path d="M1150 61 c0 -5 5 -13 10 -16 6 -3 10 -2 10 4 0 5 -4 13 -10 16 -5 3
-10 2 -10 -4z"/>
<path d="M1990 61 c0 -5 7 -11 15 -15 8 -3 15 -10 15 -16 0 -6 -10 -2 -22 10
-25 23 -29 22 -22 -8 7 -25 32 -35 69 -26 17 4 24 11 21 21 -3 8 -6 17 -6 19
0 2 -9 4 -19 4 -11 0 -23 5 -26 10 -8 12 -25 13 -25 1z"/>
<path d="M1190 10 c0 -5 5 -10 10 -10 6 0 10 5 10 10 0 6 -4 10 -10 10 -5 0
-10 -4 -10 -10z"/>
<path d="M2328 3 c7 -3 16 -2 19 1 4 3 -2 6 -13 5 -11 0 -14 -3 -6 -6z"/>
</g>
</svg>
